<?xml version="1.0" encoding="UTF-8"?>
<!DOCTYPE svg PUBLIC "-//W3C//DTD SVG 1.0//EN" "http://www.w3.org/TR/2001/REC-SVG-20010904/DTD/svg10.dtd">
<!-- Creator: CorelDRAW 2021.5 -->
<svg xmlns="http://www.w3.org/2000/svg" xml:space="preserve" width="84.6664mm" height="42.3332mm" version="1.0" style="shape-rendering:geometricPrecision; text-rendering:geometricPrecision; image-rendering:optimizeQuality; fill-rule:evenodd; clip-rule:evenodd"
viewBox="0 0 8466.64 4233.32"
 xmlns:xlink="http://www.w3.org/1999/xlink"
 xmlns:xodm="http://www.corel.com/coreldraw/odm/2003">
 <defs>
  <style type="text/css">
   <![CDATA[
    .fil32 {fill:none}
    .fil0 {fill:#FEFEFE}
    .fil31 {fill:#1D2A4C;fill-rule:nonzero}
    .fil18 {fill:#1D3F77;fill-rule:nonzero}
    .fil24 {fill:#202E51;fill-rule:nonzero}
    .fil19 {fill:#2A4E96;fill-rule:nonzero}
    .fil8 {fill:#2B478B;fill-rule:nonzero}
    .fil23 {fill:#2C3A64;fill-rule:nonzero}
    .fil28 {fill:#35488B;fill-rule:nonzero}
    .fil22 {fill:#415DA5;fill-rule:nonzero}
    .fil27 {fill:#5885D6;fill-rule:nonzero}
    .fil5 {fill:#739AF0;fill-rule:nonzero}
    .fil25 {fill:#739CF3;fill-rule:nonzero}
    .fil4 {fill:#79B27F;fill-rule:nonzero}
    .fil6 {fill:#7FAAF7;fill-rule:nonzero}
    .fil11 {fill:#83AFFC;fill-rule:nonzero}
    .fil2 {fill:#A8D29F;fill-rule:nonzero}
    .fil30 {fill:#AA3E39;fill-rule:nonzero}
    .fil17 {fill:#AEC3FF;fill-rule:nonzero}
    .fil29 {fill:#B84C42;fill-rule:nonzero}
    .fil20 {fill:#C0D8FB;fill-rule:nonzero}
    .fil10 {fill:#CCDBFD;fill-rule:nonzero}
    .fil9 {fill:#D4DFFF;fill-rule:nonzero}
    .fil16 {fill:#E88338;fill-rule:nonzero}
    .fil21 {fill:#E8945B;fill-rule:nonzero}
    .fil1 {fill:#EBF3FA;fill-rule:nonzero}
    .fil14 {fill:#ED9F4A;fill-rule:nonzero}
    .fil15 {fill:#EFCDAF;fill-rule:nonzero}
    .fil3 {fill:#F8FCFF;fill-rule:nonzero}
    .fil7 {fill:#F99746;fill-rule:nonzero}
    .fil12 {fill:#F9DDBF;fill-rule:nonzero}
    .fil26 {fill:#FFB27D;fill-rule:nonzero}
    .fil13 {fill:#FFF3E9;fill-rule:nonzero}
   ]]>
  </style>
   <clipPath id="id0">
    <path d="M-0 0l8466.64 0 0 4233.32 -8466.64 0 0 -4233.32z"/>
   </clipPath>
 </defs>
 <g id="Layer_x0020_1">
  <metadata id="CorelCorpID_0Corel-Layer"/>
  <polygon class="fil0" points="-0,0 8466.64,0 8466.64,4233.32 -0,4233.32 "/>
  <g id="_2721740301776">
  </g>
  <g>
  </g>
  <g style="clip-path:url(#id0)">
   <g id="_2721740305664">
    <path class="fil1" d="M7891.15 3556.92l-0.11 2.03c-3.06,58.94 -10.95,114.63 -22.57,167 -61.4,277.08 -221.62,454.09 -261.59,496.98l-0.05 0.08c-5.39,5.83 -8.73,9.15 -9.13,10.01 -173.6,0 -1295.76,0.2 -2574.49,-0.16 -344.69,-0.09 -700.75,-0.23 -1052.7,-0.45 -159.83,-0.08 -318.79,-0.17 -475.46,-0.27 -114.08,-0.09 -226.95,-0.2 -338.01,-0.28 -421.61,-0.36 -817.56,-0.84 -1157.14,-1.45 -181.78,-0.33 -347.4,-0.69 -492.2,-1.13 -385.55,-1.08 -623.15,-2.47 -623.87,-4.27l-0.42 -1.25c0,0 -0.35,-0.36 -0.39,-0.75l-0.02 -0.08c0,-0.42 -0.45,-0.86 -0.45,-0.86 -1.02,-2.38 -223.14,-309.56 -289.18,-730.99 -15.3,-97.73 -22.24,-201.58 -16.05,-309.2l0 -1.7c23.12,-396.92 224.11,-844.27 838.39,-1223.92 586.97,-363.3 -37.01,-602.94 429.72,-1007.43 308.17,-266.65 632.6,-210.57 966.01,-154.48 246.99,41.54 498.91,83.08 752.78,-6.57 105.13,-37.4 211.09,-97.11 317.05,-188.77 59.69,-51.7 124.86,-97.12 194.65,-135.82 10.95,-6.29 21.45,-12.19 32.38,-17.66 42.05,-21.85 85.36,-41.61 130.36,-59.27 29.83,-11.78 60.52,-22.71 91.65,-32.8 49.59,-16.38 100.47,-30.27 152.2,-41.61 73.58,-16.83 149.69,-29.03 227.03,-37.43 33.66,-3.79 67.73,-6.73 102.19,-8.84 631.41,-39.81 1337.94,170.58 1739.78,486.77 22.28,17.52 43.6,35.38 63.95,53.54 8.45,7.54 20.07,18.49 33.85,32.66 93.77,96.64 284.78,342.6 205.91,675.2 -6.74,28.37 -15.42,57.4 -26.24,86.98 -15.6,42.36 -35.67,85.91 -60.9,130.57 -39.06,69.37 -33.22,137.49 2.1,206.46l0.4 0.42 0.06 0c1.92,3.71 3.96,7.43 6.06,11.14 7.37,13.01 15.82,26.04 25.17,39.09 5.33,7.49 11,14.95 16.96,22.4 1.47,1.86 2.95,3.72 4.48,5.6 3.06,3.75 6.12,7.47 9.35,11.21l0 0.02c2.55,3 5.1,5.96 7.77,8.96 2.61,2.99 5.21,5.98 7.99,9.01 2.72,2.99 5.44,5.96 8.28,8.95 2.78,3 5.55,5.99 8.45,9.01 2.89,3 5.78,5.99 8.73,8.98 2.95,3 5.95,6 8.95,8.99l0.06 0c50.74,50.36 64.75,113.88 77.84,188.09 5.16,28.92 10.15,59.49 17.18,91.51 0.29,1.42 0.63,2.86 0.91,4.3 6.01,26.97 13.55,54.98 23.81,83.92 0.45,1.42 0.96,2.86 1.53,4.3 9.07,25.14 20.3,51.01 34.42,77.54 1.3,2.47 2.6,4.94 4.02,7.4l0 0.03c1.02,1.97 2.16,3.91 3.29,5.88 0.79,1.44 1.59,2.85 2.44,4.3 1.36,2.44 2.78,4.87 4.25,7.32l0.06 0.05c0.56,1 1.19,2.05 1.87,3.08 10.09,16.82 21.48,33.91 34.35,51.2 5.56,7.6 11.46,15.25 17.69,22.93 33.17,41.06 74.73,83.39 127.28,126.75 69.28,57.17 157.61,116.16 270.89,176.6 18.03,9.62 35.43,19.38 52.1,29.25 157.5,93.01 256.15,196.37 291.47,313.01 4.99,16.46 13.38,48.65 21.54,87.32 12.42,59.28 24.1,133.85 21.32,190.6z"/>
    <path class="fil2" d="M7890.87 3556.87c0.05,0.69 0.11,1.39 0.17,2.08 -3.06,58.94 -10.95,114.63 -22.57,167l-311.65 48.88 -64.29 10.09 -36.62 5.74 -253.54 39.78 -22.68 3.56 -50.97 8.01 -13.27 2.07 -0.05 0c0,0 -10.95,1.28 -29.88,3.08 -1.59,0.17 -3.23,0.31 -4.93,0.47 -12.65,1.17 -28.29,2.52 -46.21,3.89 -6.75,0.52 -13.78,1.02 -21.15,1.52 -1.36,0.08 -2.77,0.19 -4.19,0.28 -10.26,0.69 -21.04,1.33 -32.32,1.97 -23.19,1.24 -48.19,2.33 -74.21,2.96 -10.15,0.25 -20.41,0.44 -30.79,0.58 -5.38,0.06 -10.88,0.09 -16.33,0.09 -6.57,0.02 -13.15,0.02 -19.78,-0.03 -9.81,-0.06 -19.62,-0.22 -29.43,-0.47 -7.2,-0.17 -14.45,-0.39 -21.65,-0.64 -10.04,-0.39 -20.02,-0.88 -30,-1.47 -1.53,-0.08 -3.06,-0.19 -4.59,-0.3 -4.59,-0.28 -9.24,-0.59 -13.83,-0.95 -22.85,-1.71 -45.13,-4.07 -66.33,-7.21 -3.58,-0.52 -7.09,-1.07 -10.61,-1.66 -79.76,-13.03 -142.07,-37.9 -156.36,-82.42 -13.04,-40.78 15.14,-98.81 108.06,-179.51 15.48,-13.42 31.58,-26.29 48.3,-38.57 107.84,-79.28 240.62,-135.48 379.75,-175.16 5.78,-1.66 11.5,-3.27 17.29,-4.84 0.9,-0.26 1.81,-0.5 2.66,-0.75 1.59,-0.42 3.18,-0.86 4.76,-1.28 3.12,-0.86 6.3,-1.69 9.36,-2.5 5.5,-1.47 11,-2.91 16.5,-4.29 27.78,-7.1 55.73,-13.55 83.68,-19.43 7.03,-1.5 14.06,-2.95 21.15,-4.36 3.28,-0.66 6.57,-1.33 9.86,-1.97 2.27,-0.47 4.54,-0.91 6.8,-1.33 3.46,-0.66 6.92,-1.33 10.38,-1.97 116.45,-21.98 231.77,-34.62 335.46,-41.58 116.79,-7.88 218.96,-8.51 291.47,-7.23 8.33,20.23 15.53,51.09 21.54,87.32 9.47,56.92 16.33,127.17 21.04,190.55z"/>
    <path class="fil3" d="M4392.1 936.43c0,0 89.66,-185.41 304.05,-164.8 0,0 311.26,-309.03 643.16,-41.2 0,0 352.82,-66.37 614.08,57.45 174.22,82.55 231.77,169.15 231.77,169.15l-1793.06 -20.6z"/>
    <path class="fil3" d="M4078.22 2586.04c0,0 121.04,-209.84 410.48,-186.53 0,0 420.23,-349.73 868.36,-46.63 0,0 476.31,-75.1 829.12,65.04 235.16,93.43 312.89,191.43 312.89,191.43l-2420.85 -23.31z"/>
    <path class="fil4" d="M6072.68 1660.14c0,0 -91.51,-156.87 -310.12,-118.03 -218.59,38.84 -160.43,291.41 -281.38,410.13 -120.99,118.73 -226.48,224.51 -174.53,392.21 51.93,167.73 -223.89,203.58 -223.09,456.86 0.81,253.26 59.75,402.55 398.81,422.27 339.09,19.7 881.43,-69.9 954.9,-172.06 73.42,-102.16 61.06,-326.45 -123.37,-612.64 -184.36,-286.18 -15.87,-311.86 -139.12,-477.57 -123.25,-165.73 -36.45,-232.92 -102.1,-301.17z"/>
    <path class="fil3" d="M1951.1 1398.21c0,0 79.58,-137.98 269.9,-122.65 0,0 276.31,-229.97 570.97,-30.66 0,0 313.2,-49.39 545.17,42.76 154.66,61.43 205.73,125.88 205.73,125.88l-1591.77 -15.33z"/>
    <polygon class="fil5" points="4496.37,3771.98 4432.03,3771.98 4445.89,1947.56 4478.5,1947.56 "/>
    <polygon class="fil6" points="4458.17,1957.26 3990.3,2357.9 3808.47,2513.62 3794.68,2499.7 3955.71,2321.17 4219.44,2028.68 4427.9,1919.47 "/>
    <polygon class="fil7" points="3990.3,2357.9 3808.47,2513.62 3794.68,2499.7 3955.71,2321.17 "/>
    <polygon class="fil6" points="4489.94,1930.27 4444.28,1946.49 4214.89,1361.62 4131.95,1150.15 4149.63,1141.73 4260.92,1344.16 4455.18,1697.52 "/>
    <polygon class="fil7" points="4260.92,1344.16 4214.89,1361.62 4131.95,1150.15 4149.63,1141.73 "/>
    <polygon class="fil6" points="5317.22,1961.92 5011.9,1983.03 4684.45,2005.67 4458.64,1939.42 4463.13,1891.18 4997.92,1923.23 5316.97,1942.34 "/>
    <polygon class="fil7" points="5317.22,1961.92 5000.97,1983.79 4997.92,1923.23 5316.97,1942.34 "/>
    <path class="fil8" d="M4461.11 1885.04c-23.15,-1.39 -43.06,16.26 -44.45,39.41 -1.38,23.15 16.28,43.05 39.43,44.44 23.15,1.39 43.05,-16.26 44.44,-39.42 1.39,-23.15 -16.25,-43.05 -39.42,-44.43z"/>
    <path class="fil9" d="M2308.05 4221.62l1591.76 0 663.6 -0.41 1200 0c0,0 0.73,-1.22 2.1,-3.63 0.9,-1.72 2.21,-4.02 3.91,-6.96l0.68 -0.86c0,0 0,0 0,-0.44 0,0 0.62,-0.47 0.62,-0.89 2.67,-3.52 4.65,-7.51 7.31,-12.31 1.31,-2.22 2.61,-4.88 4.65,-7.51 0,-0.42 0,-0.42 0,-0.89 0.63,-0.44 0.63,-0.44 0.63,-0.44 9.07,-15.72 20.35,-36.18 33.39,-60.91 1.19,-2.25 2.33,-4.49 3.57,-6.8 6.47,-18.68 13.61,-39.59 21.21,-62.62 18.03,-55.95 38.78,-124.2 59.02,-201.25 7.88,-30.41 15.81,-62.1 23.35,-95.15 4.43,-19.07 8.85,-38.92 13.1,-58.96 1.19,-5.91 2.44,-11.79 3.63,-17.66 7.77,-37.54 15.08,-76.25 21.71,-115.78 12.93,-77.38 23.19,-158.03 28.97,-239.78 -515.44,26.56 -1509.02,96.51 -2256.37,263.4 -1054.56,235.54 -1315.17,273.55 -1761.89,315.83 -250.01,23.62 35.26,180.48 335.05,314.02z"/>
    <path class="fil9" d="M2978.36 3966.57c0,0 1707.95,-520.21 2138,-557.89 430.08,-37.67 18.08,50.38 18.08,50.38 0,0 -1168.86,304.07 -1440.56,433.76 -574.54,274.25 -715.52,73.75 -715.52,73.75z"/>
    <path class="fil9" d="M3494.24 4206.74c0,0 1423.45,-653.78 1808.64,-760.02 385.17,-106.23 24.82,42.25 24.82,42.25 0,0 -1123.92,586.08 -1359.35,734.04 -34.08,21.43 -474.11,-16.27 -474.11,-16.27z"/>
    <path class="fil10" d="M3220.7 3498.06l7.98 -1324.03 -307.79 297.26 -125.29 120.68 -10.51 -9.26 109.32 -136.65 178.72 -223.67 138.72 -83.67c-0.41,-0.42 -0.41,-0.42 -0.41,-0.84 0,-6.73 2.52,-12.62 5.87,-17.66l-176.57 -382.19 -69.39 -149.68 12.2 -7.15 89.58 142.11 156.38 248.08 29.86 140.41 606.7 0 0.87 14.31 -228.73 29.43 -228.74 29.85 -140.84 -32.37c-3.38,6.31 -9.26,10.92 -15.97,13.45l10.06 1302.15c-14.69,7.16 -29,16.83 -42.02,29.44z"/>
    <polygon class="fil5" points="6454.85,3696.85 6372.92,3696.85 6390.55,1140.93 6432.11,1140.93 "/>
    <polygon class="fil11" points="6397.47,1059.49 6749.21,358.35 6885.9,85.83 6908.91,95.37 6807.94,384.43 6642.56,857.9 6451.67,1088.92 "/>
    <polygon class="fil7" points="6749.21,358.35 6885.9,85.83 6908.91,95.37 6807.94,384.43 "/>
    <polygon class="fil11" points="6373.49,1106.86 6419.13,1065.29 6976.89,1638.82 7178.55,1846.19 7162,1864.79 6931.48,1682.02 6529.12,1362.97 "/>
    <polygon class="fil7" points="6931.48,1682.02 6976.89,1638.82 7178.55,1846.19 7162,1864.79 "/>
    <polygon class="fil11" points="5386.64,1477.71 5734.68,1302.34 6107.94,1114.27 6405.75,1080.68 6424.29,1139.52 5780.59,1365.67 5396.59,1500.58 "/>
    <polygon class="fil7" points="5386.64,1477.71 5747.13,1296.07 5780.59,1365.67 5396.59,1500.58 "/>
    <path class="fil8" d="M6429.67 1145.74c27.84,-9.79 42.53,-40.32 32.72,-68.19 -9.81,-27.87 -40.31,-42.52 -68.21,-32.73 -27.83,9.79 -42.52,40.32 -32.71,68.19 9.81,27.87 40.31,42.52 68.2,32.73z"/>
    <path class="fil2" d="M5205.44 3837.1c0,0 -343.75,-102.17 -545,23.04 -201.27,125.23 -82.2,269.33 -320.32,256.8 -238.09,-12.53 -357.14,-24.56 -369.67,116.16l1052.64 0 182.35 -396z"/>
    <polygon class="fil12" points="5503.85,4230.64 6659.2,4230.64 6659.2,2610.69 5503.85,2610.69 "/>
    <path class="fil13" d="M7556.88 2653.79l0 1576.71 -897.71 0 0 -1620.04 858.59 0c13.44,14.31 26.48,28.62 39.12,43.33z"/>
    <path class="fil14" d="M6882.83 2081.55l-91.22 187.94 -40.36 82.81 -1.25 3.38 -1.7 2.94 -1.25 2.52 -2.1 4.22 -0.85 2.08 -39.91 82 -2.15 4.22 -4.99 10.92 -71.1 145.88 -16.38 34.08 -23.14 47.07 -12.18 25.23 -1149.94 0 79.46 -102.99 2.52 -3.39 517.18 -669.35 0.39 -0.42 45.47 0 701.25 -2.51c24.83,47.5 63.95,95.44 112.25,143.37z"/>
    <polygon class="fil12" points="6659.17,2709.21 6659.17,2843.93 5503.85,2892.75 5503.85,2717.03 5469.64,2717.03 6069.28,1940.52 "/>
    <path class="fil15" d="M6079.54 2327.35l-24.1 0c-82.09,0 -148.59,66.53 -148.59,148.57l0 377.54 316.47 0 0 -382.36c0,-79.38 -64.35,-143.75 -143.78,-143.75z"/>
    <polygon class="fil7" points="7662.22,2760.14 6637.91,2760.14 6586.21,2691.61 6525.26,2610.46 6045.52,1970.97 6023.24,1941.11 6020.75,1937.75 7044.93,1937.75 7047.48,1941.11 7069.76,1970.97 7549.51,2610.46 7610.46,2691.61 "/>
    <polygon class="fil14" points="5943.87,2934.72 5674.38,3489.58 4855.59,3489.58 5282.48,2936.74 "/>
    <polygon class="fil12" points="5968.42,2934.72 5698.92,3489.58 4880.13,3489.58 5306.99,2936.74 "/>
    <polygon class="fil12" points="5697.11,3489.58 5697.11,4229.11 4880.13,4230.69 4880.13,3489.58 "/>
    <polygon class="fil13" points="5697.11,4229.11 6388.92,4229.11 6388.92,3489.58 5697.11,3489.58 "/>
    <polygon class="fil7" points="6465,3522.38 5721.76,3522.38 5282.46,2936.72 5503.85,2936.77 6012.87,2936.88 "/>
    <path class="fil15" d="M5243.83 3244.78c0,-21.35 17.3,-38.61 38.65,-38.61 21.32,0 38.62,17.26 38.62,38.61 0,21.32 -17.3,38.62 -38.62,38.62 -21.35,0 -38.65,-17.3 -38.65,-38.62z"/>
    <polygon class="fil16" points="6465,3522.38 6323.94,3522.38 5503.85,2936.77 6012.87,2936.88 "/>
    <polygon class="fil8" points="6834.47,2633.39 7396.77,2633.39 7100.15,2269.63 6537.85,2269.63 "/>
    <polygon class="fil17" points="6614.44,2365.44 7176.74,2365.44 7173.23,2361.17 6610.93,2361.17 "/>
    <polygon class="fil17" points="6967.93,2269.6 7264.56,2633.39 7268.87,2633.39 6972.24,2269.6 "/>
    <polygon class="fil17" points="6819,2269.6 7115.62,2633.39 7119.88,2633.39 6823.25,2269.6 "/>
    <polygon class="fil17" points="6675.62,2269.6 6972.24,2633.39 6976.55,2633.39 6679.93,2269.6 "/>
    <polygon class="fil17" points="6687.92,2453.66 7250.16,2453.66 7246.7,2449.36 6684.4,2449.36 "/>
    <polygon class="fil17" points="6765.48,2548.81 7327.77,2548.81 7324.32,2544.54 6762.02,2544.54 "/>
    <polygon class="fil17" points="7061.54,2381.1 7064.82,2363.61 7032.96,2346.06 7029.73,2363.61 "/>
    <polygon class="fil17" points="6914.19,2381.1 6917.42,2363.61 6885.61,2346.06 6882.38,2363.61 "/>
    <polygon class="fil17" points="6768.71,2381.1 6771.94,2363.61 6740.08,2346.06 6736.9,2363.61 "/>
    <polygon class="fil17" points="7133.26,2469.04 7136.49,2451.52 7104.68,2434 7101.45,2451.52 "/>
    <polygon class="fil17" points="6985.85,2469.04 6989.08,2451.52 6957.28,2434 6954.04,2451.52 "/>
    <polygon class="fil17" points="6840.37,2469.04 6843.6,2451.52 6811.8,2434 6808.56,2451.52 "/>
    <polygon class="fil17" points="7210.81,2564.19 7214.05,2546.67 7182.24,2529.15 7179.01,2546.67 "/>
    <polygon class="fil17" points="7063.46,2564.19 7066.7,2546.67 7034.89,2529.15 7031.66,2546.67 "/>
    <polygon class="fil17" points="6917.93,2564.19 6921.22,2546.67 6889.41,2529.15 6886.12,2546.67 "/>
    <polygon class="fil8" points="5773.1,3409.6 6282.62,3409.6 6013.83,3079.96 5504.32,3079.96 "/>
    <polygon class="fil17" points="5573.72,3166.8 6083.22,3166.8 6080.05,3162.91 5570.56,3162.91 "/>
    <polygon class="fil17" points="5894.09,3079.96 6162.82,3409.6 6166.73,3409.6 5897.94,3079.96 "/>
    <polygon class="fil17" points="5759.1,3079.96 6027.83,3409.6 6031.69,3409.6 5762.95,3079.96 "/>
    <polygon class="fil17" points="5629.17,3079.96 5897.94,3409.6 5901.8,3409.6 5633.04,3079.96 "/>
    <polygon class="fil17" points="5640.28,3246.72 6149.78,3246.72 6146.61,3242.84 5637.12,3242.84 "/>
    <polygon class="fil17" points="5710.59,3332.95 6220.08,3332.95 6216.91,3329.06 5707.43,3329.06 "/>
    <polygon class="fil17" points="5978.85,3180.99 5981.8,3165.13 5953,3149.24 5950.05,3165.13 "/>
    <polygon class="fil17" points="5845.33,3180.99 5848.28,3165.13 5819.42,3149.24 5816.53,3165.13 "/>
    <polygon class="fil17" points="5713.5,3180.99 5716.44,3165.13 5687.61,3149.24 5684.67,3165.13 "/>
    <polygon class="fil17" points="6043.82,3260.67 6046.77,3244.78 6017.91,3228.89 6015.02,3244.78 "/>
    <polygon class="fil17" points="5910.3,3260.67 5913.2,3244.78 5884.39,3228.89 5881.5,3244.78 "/>
    <polygon class="fil17" points="5778.43,3260.67 5781.38,3244.78 5752.56,3228.89 5749.63,3244.78 "/>
    <polygon class="fil17" points="6114.12,3346.89 6117.07,3331 6088.27,3315.12 6085.32,3331 "/>
    <polygon class="fil17" points="5980.61,3346.89 5983.55,3331 5954.7,3315.12 5951.75,3331 "/>
    <polygon class="fil17" points="5848.79,3346.89 5851.68,3331 5822.88,3315.12 5819.93,3331 "/>
    <path class="fil2" d="M2811.84 4221.62c-0.17,0.48 -0.33,0.92 -0.5,1.39l-1928.32 0 -0.02 -0.08c0,-0.42 -0.44,-0.86 -0.44,-0.86 -1.03,-2.38 -223.15,-309.56 -289.19,-730.99 48.27,-18.55 218.68,-76.16 458.43,-69.92 9.65,0.25 19.41,0.61 29.28,1.08 88.47,4.13 185.7,17.13 289.19,43.83 3.63,0.95 7.29,1.89 10.95,2.86 1.02,0.28 2.05,0.55 3.08,0.83 7.32,1.97 14.63,3.99 22.01,6.1 8.27,2.35 16.52,4.8 24.87,7.32 2.97,0.91 5.96,1.83 8.95,2.74 11.04,3.44 22.13,7.05 33.3,10.79 130.25,43.83 211.06,91.07 267.31,136.73 1.16,0.94 2.33,1.89 3.5,2.83 27,22.32 48.26,44.24 66.64,65.17 5.02,5.72 9.85,11.34 14.5,16.89 5.77,6.9 11.31,13.67 16.75,20.29 18.21,22.24 35.04,42.75 54.78,60.66 54.45,49.55 131,79.49 319.73,71.97 33.85,-1.35 66.2,-1.66 97.11,-0.99 405.85,8.45 560.18,182.39 498.09,351.36z"/>
    <path class="fil2" d="M7891.15 3556.92l-0.28 -0.05c-73.99,-14.78 -190.21,-32.58 -334.05,-36.85 -89.07,-2.66 -188.85,-0.13 -295.72,11.51 -3.74,0.41 -7.54,0.83 -11.34,1.24 -11.17,1.31 -22.39,2.67 -33.67,4.16 -24.72,3.22 -49.72,6.96 -75.07,11.23l-0.05 0c-7.54,1.28 -15.03,2.58 -22.63,3.97 -8.1,1.44 -16.27,2.96 -24.43,4.54 -17.58,3.38 -35.26,7.05 -53.01,10.98 -7.82,1.72 -15.7,3.52 -23.58,5.38 -7.83,1.8 -15.71,3.71 -23.65,5.66 -9.58,2.38 -19.22,4.82 -28.85,7.34l-0.06 0c-3.01,0.81 -6.01,1.61 -9.02,2.42l0 0c-8.84,2.38 -17.74,4.82 -26.64,7.34 -35.95,10.18 -72.29,21.57 -108.86,34.3 -60.04,20.73 -113.39,41.16 -161.07,61.07 -60.49,25.2 -111.97,49.57 -156.36,72.61 -43.94,22.68 -81.19,44.22 -113.9,64.32 -177.16,108.9 -220.82,176.1 -462.56,157.28 -21.54,-1.64 -42.13,-2.31 -61.91,-2.03 -64.75,0.84 -120.17,11.28 -167.33,27.39 -94.53,32.27 -155.94,87.36 -193.28,133.32 -30.78,37.88 -45.25,69.54 -48.5,77.13 -0.49,1.14 -0.72,1.75 -0.72,1.75l2152.27 0c39.97,-42.89 200.19,-219.9 261.59,-496.98 11.62,-52.37 19.51,-108.06 22.57,-167l0.11 -2.03z"/>
    <path class="fil3" d="M1574.73 2407.2c0,0 46.46,-86.92 157.58,-77.27 0,0 161.31,-144.86 333.34,-19.33 0,0 182.85,-31.08 318.27,26.95 90.29,38.7 120.11,79.29 120.11,79.29l-929.3 -9.64z"/>
    <path class="fil3" d="M3308.64 1658.17c0,0 38.47,-82.66 130.49,-73.47 0,0 133.6,-137.77 276.05,-18.37 0,0 151.42,-29.58 263.56,25.61 74.78,36.8 99.48,75.41 99.48,75.41l-769.58 -9.18z"/>
    <polygon class="fil18" points="1688.95,4209.54 1798.77,4208.18 2055.24,3139.49 1945.43,3140.87 "/>
    <path class="fil18" d="M1507.53 4233.33l492.46 0c0,-28.81 -23.35,-52.18 -52.17,-52.18l-388.12 0c-28.81,0 -52.17,23.37 -52.17,52.18z"/>
    <polygon class="fil18" points="2645.11,3738.51 2597.81,3501.39 2597.72,3500.89 2440.31,2711.71 910.35,2711.93 1115.16,3738.73 1405.77,3738.71 1408.5,3738.71 1733.73,3738.65 1734.73,3738.65 2058.54,3738.62 2060.76,3738.6 2383.85,3738.57 2386.78,3738.57 "/>
    <polygon class="fil19" points="2671.32,3718.22 1141.36,3718.44 936.56,2711.93 2466.51,2711.71 "/>
    <polygon class="fil20" points="1434.9,3718.41 1431.97,3718.41 1227.72,2714.59 1230.65,2714.59 "/>
    <polygon class="fil20" points="1760.94,3718.36 1758,3718.36 1553.75,2714.57 1556.68,2714.57 "/>
    <polygon class="fil20" points="2086.96,3718.3 2084.03,3718.3 1879.78,2714.51 1882.7,2714.51 "/>
    <polygon class="fil20" points="2412.98,3718.28 2410.06,3718.28 2205.8,2714.46 2208.73,2714.46 "/>
    <polygon class="fil20" points="2515.12,2950.58 985.16,2950.8 984.6,2948.06 2514.56,2947.84 "/>
    <polygon class="fil20" points="2569.57,3218.2 1039.61,3218.39 1039.05,3215.64 2569.01,3215.42 "/>
    <polygon class="fil20" points="2624.02,3485.78 1094.06,3485.98 1093.5,3483.23 2623.46,3483.01 "/>
    <polygon class="fil20" points="1282.98,2978.97 1245.46,2949.38 1270.93,2919.81 1308.45,2949.38 "/>
    <polygon class="fil20" points="1337.71,3247.94 1300.19,3218.36 1325.67,3188.78 1363.18,3218.36 "/>
    <polygon class="fil20" points="1610.47,2978.94 1572.95,2949.36 1598.43,2919.75 1635.95,2949.33 "/>
    <polygon class="fil20" points="1665.2,3247.89 1627.69,3218.3 1653.17,3188.73 1690.68,3218.3 "/>
    <polygon class="fil20" points="1936.5,2978.88 1898.99,2949.3 1924.46,2919.72 1961.98,2949.3 "/>
    <polygon class="fil20" points="2259.6,2978.83 2222.08,2949.25 2247.55,2919.66 2285.07,2949.25 "/>
    <polygon class="fil20" points="1391.88,3514.17 1354.36,3484.59 1379.83,3454.98 1417.35,3484.56 "/>
    <polygon class="fil20" points="1719.37,3514.11 1681.85,3484.54 1707.33,3454.95 1744.85,3484.54 "/>
    <polygon class="fil20" points="2045.41,3514.06 2007.89,3484.48 2033.36,3454.9 2070.88,3484.48 "/>
    <polygon class="fil20" points="2368.5,3514.03 2330.99,3484.45 2356.46,3454.85 2393.97,3484.42 "/>
    <polygon class="fil20" points="2314.32,3247.8 2276.81,3218.22 2302.29,3188.64 2339.8,3218.22 "/>
    <polygon class="fil20" points="1991.24,3247.86 1953.72,3218.28 1979.19,3188.67 2016.71,3218.25 "/>
    <polygon class="fil18" points="3281.55,4217 3356.96,4216.06 3533.03,3482.32 3457.62,3483.26 "/>
    <path class="fil18" d="M3156.99 4233.33l338.11 0c0,-19.77 -16.05,-35.82 -35.82,-35.82l-266.47 0c-19.77,0 -35.82,16.05 -35.82,35.82z"/>
    <polygon class="fil18" points="3938.05,3893.6 3905.55,3730.81 3905.5,3730.45 3797.43,3188.64 2746.98,3188.78 2887.6,3893.76 3087.12,3893.74 3089.01,3893.74 3312.29,3893.71 3312.99,3893.71 3535.31,3893.69 3536.83,3893.66 3758.64,3893.63 3760.67,3893.63 3760.67,3893.63 "/>
    <polygon class="fil19" points="3956.01,3879.68 2905.59,3879.82 2764.97,3188.78 3815.39,3188.64 "/>
    <polygon class="fil20" points="3107.11,3879.8 3105.11,3879.8 2964.89,3190.61 2966.89,3190.61 "/>
    <polygon class="fil20" points="3330.98,3879.77 3328.96,3879.77 3188.73,3190.58 3190.73,3190.58 "/>
    <polygon class="fil20" points="3554.82,3879.74 3552.8,3879.74 3412.57,3190.55 3414.57,3190.55 "/>
    <polygon class="fil20" points="3778.66,3879.71 3776.64,3879.71 3636.42,3190.53 3638.41,3190.53 "/>
    <polygon class="fil20" points="3848.78,3352.62 2798.34,3352.79 2797.96,3350.88 3848.39,3350.74 "/>
    <polygon class="fil20" points="3886.18,3536.35 2835.73,3536.52 2835.35,3534.61 3885.79,3534.47 "/>
    <polygon class="fil20" points="3923.55,3720.07 2873.12,3720.22 2872.74,3718.33 3923.16,3718.19 "/>
    <polygon class="fil20" points="3002.81,3372.12 2977.06,3351.83 2994.55,3331.5 3020.31,3351.8 "/>
    <polygon class="fil20" points="3040.38,3556.78 3014.63,3536.49 3032.12,3516.17 3057.87,3536.46 "/>
    <polygon class="fil20" points="3227.65,3372.09 3201.9,3351.77 3219.39,3331.47 3245.15,3351.77 "/>
    <polygon class="fil20" points="3265.25,3556.76 3239.49,3536.43 3256.99,3516.14 3282.74,3536.43 "/>
    <polygon class="fil20" points="3451.52,3372.06 3425.74,3351.74 3443.23,3331.41 3468.99,3351.74 "/>
    <polygon class="fil20" points="3673.34,3372.04 3647.58,3351.71 3665.08,3331.39 3690.83,3351.71 "/>
    <polygon class="fil20" points="3077.59,3739.57 3051.83,3719.25 3069.33,3698.95 3095.08,3719.25 "/>
    <polygon class="fil20" points="3302.42,3739.54 3276.67,3719.22 3294.16,3698.9 3319.92,3719.22 "/>
    <polygon class="fil20" points="3526.3,3739.51 3500.51,3719.19 3518,3698.87 3543.76,3719.19 "/>
    <polygon class="fil20" points="3748.11,3739.48 3722.36,3719.16 3739.85,3698.84 3765.61,3719.16 "/>
    <polygon class="fil20" points="3710.93,3556.7 3685.18,3536.38 3702.65,3516.06 3728.4,3536.38 "/>
    <polygon class="fil20" points="3489.09,3556.73 3463.33,3536.41 3480.83,3516.12 3506.58,3536.41 "/>
    <path class="fil21" d="M4881.82 3970.42l24.98 -4.88c0,0 -59.72,-236.26 -51.54,-255.75 6.62,-16.19 75.49,-27.89 109.23,-56.2 7.23,-6.04 12.7,-12.66 15.8,-20.26 17.97,-43.91 -11.31,-76.49 -11.31,-76.49 0,0 -61.24,14.05 -116.85,37.84 -39.59,16.97 -76.27,39.04 -86.42,64.57 -24.37,61.85 116.11,311.17 116.11,311.17z"/>
    <path class="fil22" d="M4813.81 4006.85c0.39,-2.47 2.03,-4.66 4.43,-5.99 5.97,-3.27 18.14,-7.98 27.23,-20.15 5.13,-6.82 26.31,-27.06 26.31,-27.06l0.14 -0.06c0.53,-0.14 3.3,-0.08 16.75,5.41 6.92,2.83 14.13,-10.2 14.13,-10.2 0,0 2.22,0.88 4.27,3.08 1.64,1.69 3.16,4.24 3.39,7.81 0.36,4.99 5.54,13.15 9.39,18.55 2.33,3.3 4.19,5.57 4.19,5.57 0,0 1.44,2.83 -10.37,7.29l-14.11 3.67c-4.91,0.55 -8.71,0.25 -13.72,0.94 -7.57,1.05 -10.29,4.6 -10.82,5.4l-0.08 0.14 -60.02 15.53c-2,-1.53 -1.69,-6.33 -1.11,-9.93z"/>
    <path class="fil23" d="M4696.15 4016.28c6.15,0 11.17,-4.99 11.17,-11.14 0,-138.38 -112.58,-250.96 -250.95,-250.96 -31.94,0 -63.07,5.93 -92.46,17.6 -5.74,2.25 -8.51,8.76 -6.24,14.47 2.28,5.71 8.71,8.51 14.47,6.27 26.76,-10.65 55.12,-16.05 84.23,-16.05 126.09,0 228.64,102.58 228.64,228.67 0,6.15 4.99,11.14 11.14,11.14z"/>
    <path class="fil22" d="M4494.24 4005.1c0,-20.51 -16.63,-37.15 -37.18,-37.15 -20.51,0 -37.15,16.64 -37.15,37.15 0,20.55 16.64,37.18 37.15,37.18 20.55,0 37.18,-16.63 37.18,-37.18z"/>
    <polygon class="fil22" points="4461.14,4003.44 4524.1,3827.95 4519.36,3826.23 4456.37,4001.75 "/>
    <polygon class="fil22" points="4634.94,4084.25 4636.94,4079.63 4458.73,4003.08 4341.57,3835.71 4337.43,3838.62 4455.43,4007.16 4456.09,4007.43 "/>
    <path class="fil22" d="M4527.73 4198.65l4.8 -1.61c-1.28,-3.77 -70.17,-185.11 -73.11,-192.82l-1.78 -4.71 -111.03 175.57 4.27 2.69 105.62 -167.04c25.23,66.4 70.29,185.03 71.23,187.92z"/>
    <polygon class="fil22" points="4457.51,3995.02 4655.26,3960.99 4654.4,3956.03 4456.65,3990.02 "/>
    <polygon class="fil22" points="4442.09,3992.04 4446.86,3990.46 4388.92,3816.64 4384.14,3818.22 "/>
    <polygon class="fil22" points="4457.48,4007.74 4458.2,4007.35 4639.59,3915.42 4637.32,3910.93 4456.67,4002.5 4262.25,3969.87 4261.41,3974.86 "/>
    <path class="fil22" d="M4383.9 4192.32c1.06,-3.16 47.6,-117.69 73.66,-181.72l100.67 158.35 4.27 -2.69 -105.91 -166.62 -1.86 4.52c-3.02,7.46 -74.35,182.76 -75.63,186.58l4.8 1.58z"/>
    <polygon class="fil22" points="4651.93,4036.57 4652.68,4031.58 4457.45,4002.61 4456.7,4007.6 "/>
    <polygon class="fil22" points="4469.04,3979.04 4577.38,3854.34 4573.58,3851.04 4465.24,3975.75 "/>
    <polygon class="fil22" points="4463.38,4201.83 4468.4,4201.42 4453.29,4018.77 4448.27,4019.19 "/>
    <polygon class="fil22" points="4294.77,4116.77 4467.32,3997.12 4464.46,3992.96 4291.89,4112.62 "/>
    <polygon class="fil22" points="4600.15,4140.4 4603.72,4136.85 4459.58,3991.49 4459.58,3802.3 4454.57,3802.3 4454.57,3993.54 "/>
    <path class="fil24" d="M4630.47 4076.85c-0.6,1.56 -1.27,3.11 -1.99,4.63 -7.96,17.83 -18.63,34.19 -31.5,48.58 -1.11,1.27 -2.24,2.52 -3.41,3.74 -10.09,10.67 -21.4,20.18 -33.73,28.28 -1.39,0.94 -2.8,1.83 -4.25,2.71 -9.34,5.8 -19.24,10.79 -29.58,14.89 -1.55,0.61 -3.13,1.22 -4.71,1.8 -16.89,6.16 -34.91,9.98 -53.65,11.01 -1.69,0.11 -3.35,0.16 -5.04,0.22 -1.86,0.06 -3.69,0.08 -5.55,0.08 -23.46,0 -46.63,-4.38 -68.26,-12.83 -1.58,-0.58 -3.12,-1.22 -4.68,-1.86 -7.54,-3.22 -14.89,-6.88 -21.98,-11.06 -1.09,-0.64 -2.17,-1.31 -3.25,-1.97 -1.44,-0.86 -2.85,-1.75 -4.24,-2.69 -19.32,-12.58 -36.18,-28.67 -49.68,-47.3 -0.86,-1.19 -1.72,-2.41 -2.55,-3.62 -0.97,-1.39 -1.92,-2.81 -2.8,-4.22 -1.72,-2.58 -3.33,-5.18 -4.88,-7.85 -9.18,-15.77 -15.97,-32.79 -20.19,-50.48 -3.43,-14.28 -5.18,-29 -5.18,-43.81 0,-9.73 0.75,-19.26 2.17,-28.58 0.27,-1.66 0.55,-3.33 0.83,-4.96 8.81,-48.65 36.46,-90.82 75.05,-118.68 1.35,-1.01 2.74,-1.98 4.13,-2.92 11.39,-7.79 23.67,-14.33 36.65,-19.49 1.57,-0.61 3.16,-1.19 4.74,-1.77 19.26,-7.05 40,-10.98 61.6,-11.26 0.83,-0.03 1.69,-0.03 2.52,-0.03 0.83,0 1.69,0 2.52,0.03 20.19,0.25 39.62,3.72 57.78,9.9l0.03 0c0.47,0.16 0.91,0.33 1.39,0.5 1.6,0.56 3.16,1.13 4.74,1.72 8.23,3.13 16.18,6.82 23.81,11.01 7.9,4.35 15.44,9.26 22.59,14.66 1.36,1 2.67,2.02 3.97,3.11 7.01,5.57 13.64,11.67 19.79,18.18 6.02,6.38 11.57,13.2 16.64,20.38 4.76,6.71 9.12,13.75 12.95,21.1 0.8,1.49 1.58,2.99 2.3,4.49 5.65,11.45 10.14,23.56 13.39,36.18 0.38,1.63 0.8,3.27 1.16,4.93 3.02,13.36 4.63,27.25 4.63,41.5 0,8.49 -0.55,16.86 -1.66,25.07 -0.22,1.66 -0.47,3.35 -0.75,4.99 -2.33,14.53 -6.35,28.5 -11.87,41.69zm3.5 -198.86c-4.02,-5.57 -8.32,-10.98 -12.84,-16.13 -17.19,-19.66 -37.85,-36.21 -60.99,-48.69 -10.1,-5.46 -20.66,-10.12 -31.61,-13.92 -22.39,-7.81 -46.43,-12.05 -71.47,-12.05 -7.76,0 -15.44,0.41 -22.98,1.21l-0.03 0c-45.22,4.78 -86.36,23.44 -119.04,51.57l-0.03 0.03c-46.38,40.01 -75.83,99.17 -75.83,165.09 0,19.96 2.75,39.76 8.07,58.81 4.77,17.13 11.67,33.68 20.57,49.21 0.25,0.49 0.56,0.97 0.83,1.46 18.85,32.39 45.89,59.56 78.19,78.52 25.36,14.91 53.56,24.48 82.72,28.17l0.11 0c9.04,1.16 18.25,1.74 27.42,1.74 9.46,0 18.8,-0.61 27.94,-1.77l0.06 0c107.01,-13.81 189.91,-105.44 189.91,-216.14 0,-47.4 -15.19,-91.32 -41,-127.11z"/>
    <polygon class="fil25" points="4878.08,4038.79 5006.16,3638.24 4984.56,3631.33 4856.47,4031.88 "/>
    <polygon class="fil25" points="4888.83,4039.92 5191.1,4013.65 4630.53,3634.64 4662.61,3700.28 5125.4,3996.59 4886.89,4017.33 "/>
    <polygon class="fil25" points="4848.11,4022.18 4867.15,4009.87 4634.58,3637.29 4607.49,3665.32 "/>
    <path class="fil22" d="M4475.14 3995.12l129.52 -277.21 -17.36 -6.92c-11.28,-4.53 -24.08,0.99 -28.55,12.28l-104.63 263.29 21.02 8.56z"/>
    <path class="fil22" d="M4604.66 3717.91c18.74,-48.62 50.01,-125.03 49.52,-124.28l-18.86 -12.59c-0.91,1.39 -1.52,2.3 -50.67,129.86l20.01 7.01z"/>
    <path class="fil22" d="M4713.39 3620.19c7.41,-10.31 5.08,-24.7 -5.23,-32.11 -10.32,-7.42 -24.68,-5.07 -32.11,5.24 -7.4,10.31 -5.07,24.68 5.24,32.08 10.32,7.43 24.68,5.1 32.1,-5.21z"/>
    <path class="fil22" d="M4626.32 3559.97c7.42,-10.31 5.1,-24.67 -5.22,-32.1 -10.31,-7.41 -24.7,-5.08 -32.1,5.24 -7.43,10.31 -5.07,24.67 5.24,32.1 10.28,7.4 24.67,5.08 32.08,-5.24z"/>
    <polygon class="fil22" points="4603.89,3568.12 4691.74,3624.01 4703.91,3600.03 4616.08,3544.15 "/>
    <path class="fil22" d="M4748.46 4093.3l49.13 0c5.77,0 10.48,-4.74 10.48,-10.52 0,-5.76 -4.71,-10.47 -10.48,-10.47l-49.13 0c-5.76,0 -10.5,4.71 -10.5,10.47 0,5.78 4.74,10.52 10.5,10.52z"/>
    <polygon class="fil22" points="4772.55,4080.51 4872.06,4035.16 4868.4,4027.14 4768.9,4072.47 "/>
    <path class="fil22" d="M5195.43 4005.1c0,-20.51 -16.66,-37.15 -37.18,-37.15 -20.51,0 -37.15,16.64 -37.15,37.15 0,20.55 16.64,37.18 37.15,37.18 20.52,0 37.18,-16.63 37.18,-37.18z"/>
    <polygon class="fil22" points="5162.3,4003.44 5225.28,3827.95 5220.54,3826.23 5157.56,4001.75 "/>
    <polygon class="fil22" points="5336.12,4084.25 5338.12,4079.63 5159.92,4003.08 5042.76,3835.71 5038.62,3838.62 5156.62,4007.16 5157.25,4007.43 "/>
    <path class="fil22" d="M5228.92 4198.65l4.8 -1.61c-1.28,-3.77 -70.18,-185.11 -73.11,-192.82l-1.78 -4.71 -111.03 175.57 4.27 2.69 105.63 -167.04c25.23,66.4 70.28,185.03 71.22,187.92z"/>
    <polygon class="fil22" points="5158.7,3995.02 5356.45,3960.99 5355.59,3956.03 5157.84,3990.02 "/>
    <polygon class="fil22" points="5143.28,3992.04 5148.05,3990.46 5090.11,3816.64 5085.34,3818.22 "/>
    <polygon class="fil22" points="5158.67,4007.74 5159.39,4007.35 5340.78,3915.42 5338.51,3910.93 5157.86,4002.5 4963.43,3969.87 4962.61,3974.86 "/>
    <path class="fil22" d="M5085.06 4192.32c1.08,-3.16 47.63,-117.69 73.69,-181.72l100.66 158.35 4.27 -2.69 -105.93 -166.62 -1.83 4.52c-3.02,7.46 -74.36,182.76 -75.63,186.58l4.77 1.58z"/>
    <polygon class="fil22" points="5353.12,4036.57 5353.87,4031.58 5158.64,4002.61 5157.89,4007.6 "/>
    <polygon class="fil22" points="5170.23,3979.04 5278.57,3854.34 5274.74,3851.04 5166.43,3975.75 "/>
    <polygon class="fil22" points="5164.57,4201.83 5169.59,4201.42 5154.48,4018.77 5149.46,4019.19 "/>
    <polygon class="fil22" points="4995.95,4116.77 5168.51,3997.12 5165.65,3992.96 4993.07,4112.62 "/>
    <polygon class="fil22" points="5301.33,4140.4 5304.91,4136.85 5160.77,3991.49 5160.77,3802.3 5155.73,3802.3 5155.73,3993.54 "/>
    <path class="fil24" d="M5331.66 4076.85c-0.61,1.56 -1.27,3.11 -1.99,4.63 -7.96,17.83 -18.63,34.19 -31.5,48.58 -1.1,1.27 -2.24,2.52 -3.41,3.74 -10.09,10.67 -21.4,20.18 -33.73,28.28 -1.39,0.94 -2.81,1.83 -4.25,2.71 -9.34,5.8 -19.24,10.79 -29.58,14.89 -1.55,0.61 -3.13,1.22 -4.72,1.8 -16.91,6.16 -34.93,9.98 -53.67,11.01 -1.66,0.11 -3.35,0.16 -5.02,0.22 -1.85,0.06 -3.68,0.08 -5.54,0.08 -23.48,0 -46.63,-4.38 -68.26,-12.83 -1.58,-0.58 -3.13,-1.22 -4.68,-1.86 -7.54,-3.22 -14.89,-6.88 -21.99,-11.06 -1.08,-0.64 -2.16,-1.31 -3.24,-1.97 -1.44,-0.86 -2.86,-1.75 -4.24,-2.69l-0.14 -0.08c-20.51,-13.39 -38.23,-30.72 -52.09,-50.84 -0.97,-1.39 -1.92,-2.81 -2.8,-4.22 -1.72,-2.58 -3.33,-5.18 -4.88,-7.85 -11.98,-20.57 -19.88,-43.25 -23.32,-66.76 -1.14,-7.45 -1.77,-14.99 -1.96,-22.59 -0.06,-1.64 -0.09,-3.3 -0.09,-4.94 0,-9.73 0.75,-19.26 2.16,-28.58 0.28,-1.66 0.56,-3.33 0.83,-4.96 3.8,-20.93 11.07,-40.67 21.24,-58.58 4.35,-7.76 9.26,-15.17 14.67,-22.15 11.14,-14.48 24.34,-27.28 39.14,-37.95 1.36,-1.01 2.75,-1.98 4.13,-2.92 11.4,-7.79 23.68,-14.33 36.66,-19.49 1.57,-0.61 3.16,-1.19 4.74,-1.77 11.75,-4.3 23.98,-7.43 36.67,-9.29l0.03 0c8.15,-1.19 16.44,-1.85 24.9,-1.97 0.83,-0.03 1.69,-0.03 2.52,-0.03 0.83,0 1.69,0 2.52,0.03 20.71,0.25 40.62,3.91 59.19,10.4 1.61,0.56 3.16,1.13 4.75,1.72 16.74,6.35 32.35,15.05 46.41,25.67 1.35,1 2.66,2.02 3.96,3.11 20.32,16.19 37.2,36.48 49.37,59.66 0.81,1.49 1.59,2.99 2.31,4.49 5.65,11.45 10.14,23.56 13.38,36.18 0.39,1.63 0.81,3.27 1.14,4.93 3.05,13.36 4.66,27.25 4.66,41.5 0,8.49 -0.55,16.86 -1.66,25.07 -0.23,1.66 -0.48,3.35 -0.75,4.99 -2.33,14.53 -6.35,28.5 -11.87,41.69zm-173.41 -289.65c-33.35,0 -64.99,7.54 -93.26,21.01 -31.88,15.11 -59.53,37.79 -80.6,65.68 -5.48,7.23 -10.53,14.86 -15.08,22.76 -18.43,31.94 -28.97,69 -28.97,108.45 0,2.52 0.06,5.05 0.14,7.58 0.25,7.56 0.92,15.1 1.94,22.59 3.91,27.92 13.17,54.92 27.36,79.31 17.86,30.67 43.09,56.67 73.17,75.44 1.66,1.06 3.35,2.08 5.04,3.08 25.18,14.8 53.09,24.31 81.98,28.08 9.34,1.22 18.8,1.83 28.28,1.83 9.59,0 19.05,-0.61 28.31,-1.83 106.81,-13.92 189.6,-105.51 189.6,-216.08 0,-120.15 -97.75,-217.9 -217.91,-217.9z"/>
    <path class="fil7" d="M4980.68 3781.51c3.19,1.14 6.71,0.78 9.62,-0.97 101.94,-61.6 243.02,-38.48 283.83,-29.91l0.06 0.03c2.24,0.47 4.35,-1.25 4.35,-3.55l0 -7.96c0,-6.1 -4.43,-11.29 -10.47,-12.17 -22.07,-3.3 -73.64,-10.34 -102.47,-10.48 -0.78,0 -1.56,0 -2.33,0 -64.54,0 -120.27,11.56 -166.07,34.38 -9.34,4.66 -20.18,5.32 -30.05,1.86l-12.56 -4.41c-7.18,-2.53 -15.05,1.24 -17.58,8.43 -1.63,4.63 0.81,9.7 5.44,11.33l38.23 13.42z"/>
    <path class="fil7" d="M5075.44 3626.29c0,0 4.1,-18.58 -7.57,-19.85 -11.64,-1.25 -54.14,7.87 -65.48,6.62 -11.34,-1.27 -70.56,-11.03 -80.93,-0.94 -10.39,10.07 -5.98,18.88 14.78,20.76 20.79,1.92 48.52,5.36 56.39,11.98 7.87,6.63 64.84,26.15 82.81,-18.57z"/>
    <path class="fil23" d="M4923.96 4035.35c0,-31.3 -25.37,-56.69 -56.67,-56.69 -31.3,0 -56.7,25.39 -56.7,56.69 0,31.3 25.4,56.67 56.7,56.67 31.3,0 56.67,-25.37 56.67,-56.67z"/>
    <path class="fil21" d="M4669.76 3554.9c0,0 -18.55,-23.54 -28.7,-20.63 -17.52,5.07 -18.96,21.07 -18.54,24.34 0.44,3.28 0.22,16.14 8.01,18.88 7.76,2.75 15.86,-0.63 19.43,-3.63 3.61,-3.02 19.8,-18.96 19.8,-18.96z"/>
    <path class="fil21" d="M4638.26 3535.88c0,0 2.58,14.64 20.33,19.52 17.77,4.68 127.55,-41.53 153.7,-54.39 14.02,-7.05 34.32,-46.06 49.93,-80.18 3.71,-8.4 7.2,-16.39 10.34,-23.63 7.82,-18.13 12.86,-31.18 12.86,-31.18 0,-17.97 -19.8,-10.95 -37.73,-2.75 -5.49,2.53 -34.07,-9.56 -41.67,5.08 -3.52,6.82 -8.18,6.04 -11.7,13.67 -13.83,30.6 -26.5,65.14 -29.25,73.32 -4.88,14.64 -126.81,80.54 -126.81,80.54z"/>
    <path class="fil26" d="M4683.48 3568.59c0,0 -18.46,-23.15 -28.72,-20.6 -24.12,6.02 -20.87,23.43 -20.43,26.7 0.41,3.25 2.13,13.78 9.92,16.53 7.77,2.74 15.86,-0.64 19.43,-3.66 3.61,-3 19.8,-18.97 19.8,-18.97z"/>
    <path class="fil26" d="M4895.74 3336.46l-62.66 23.13c-7.99,-7.76 -16.03,-20.14 -22.46,-31.44 -7.98,-14.03 -13.53,-26.43 -13.53,-26.43l43.75 -30.66 13.75 -9.62c0.89,27.92 41.15,75.02 41.15,75.02z"/>
    <path class="fil21" d="M4857.92 3276.58c0,0 -12.42,38.65 -47.3,51.57 -7.98,-14.03 -13.53,-26.43 -13.53,-26.43l43.75 -30.66 17.08 5.52z"/>
    <path class="fil26" d="M4777.27 3300.78c0,0 77.46,12.15 84.28,-36.23 6.82,-48.35 21.41,-79.35 -27.75,-89.14 -49.18,-9.81 -61.41,7.3 -67.62,22.88 -6.21,15.58 -8.9,98.09 11.09,102.49z"/>
    <path class="fil23" d="M4878.93 3166.6c0,0 -3.52,0.72 -6.34,3.66l-0.06 -0.06c-0.19,-10.42 -10.43,-20.96 -10.43,-20.96 4.91,6.19 3.33,17.61 3.33,17.61 -14.58,-24.93 -85.61,-5.33 -92.26,-3.66 -6.66,1.67 -11.37,-8.32 -11.37,-8.32 -10.51,9.1 -14.5,31.39 -5.79,45.97 8.7,14.55 36.98,35.99 45.1,31.91 8.15,-4.08 8.15,4.35 7.74,16.19 -0.42,11.81 20.07,31.72 34.52,34.6 11.64,2.33 12.55,-5.63 15.74,-10.73 0.78,-1.25 1.72,-2.41 2.83,-3.41 15.86,-14.31 24.59,-42.92 21.04,-71.11 -1.41,-11.17 -6.04,-20.6 -8.65,-25.14 1.06,-1.78 3.1,-5.13 4.6,-6.55z"/>
    <path class="fil23" d="M4852.13 3594.68c0.8,3.52 9.37,32.38 31.6,39.81 14.44,4.88 49.57,16.77 80.76,19.1 7.23,-6.04 12.7,-12.66 15.8,-20.26 17.97,-43.91 -11.31,-76.49 -11.31,-76.49 0,0 -61.24,14.05 -116.85,37.84z"/>
    <path class="fil26" d="M5028.06 3492.88c0,0 62.77,72.3 5.13,153.56 -57.61,81.29 -151.45,146.86 -156.61,175.85 -10.01,56.09 -69.75,171.92 -98.2,229.22l-24.37 -9.34c0,0 45.72,-271.61 61.99,-304.1 16.25,-32.52 100.47,-184.72 100.47,-184.72l111.59 -60.47z"/>
    <path class="fil27" d="M4793.63 3378.35c6.04,1.95 20.65,7.41 24.56,14.06 4.1,6.63 47.02,-11.92 52.09,-29.27 -12.28,-13.45 -33.35,-24.96 -45.66,-21.08 -7.2,2.17 -18.9,17.56 -30.99,36.29z"/>
    <path class="fil28" d="M5040.7 3515.12c0,0 -81.48,58.05 -135.93,54.8 0,0 -35.76,60.97 -43.69,81.07 0,0 92.65,46.33 140.84,37.82 0,0 62.77,-60.97 59.13,-103.66 -3.66,-42.67 -20.35,-70.03 -20.35,-70.03z"/>
    <path class="fil5" d="M4817.2 3405.94l19.54 27.81 1.55 3.51 40.59 92.66 20.65 47.22c13.87,3.32 39.62,0.97 51.13,-3.14 62.82,-21.46 90.12,-58.91 90.12,-58.91 -36.48,-95.37 -87.02,-160.52 -97.33,-172.06 -17.97,-19.48 -64.98,-35.48 -64.98,-35.48 -12.87,13.25 -58.92,36.48 -58.92,36.48 -10.12,7.99 -2.35,61.91 -2.35,61.91z"/>
    <path class="fil27" d="M4838.29 3437.26l40.59 92.66c30.8,-62.21 11.31,-152.54 11.31,-152.54 0,0 -49.57,42.92 -51.32,46.22 -0.19,0.61 -0.58,5.66 -0.58,13.66z"/>
    <path class="fil26" d="M4651.99 3549.6c0,0 2.58,14.62 20.32,19.49 17.74,4.69 127.55,-41.5 153.7,-54.39 14.03,-7.02 34.32,-46.02 49.93,-80.15 3.72,-8.4 7.21,-16.41 10.34,-23.62 7.79,-18.13 12.86,-31.22 12.86,-31.22 0,-17.93 -42.33,-42.33 -60.27,-34.13 -5.46,2.53 -12.67,13.64 -20.29,28.28 -3.49,6.82 -7.01,14.25 -10.53,21.85 -13.84,30.63 -26.54,65.15 -29.25,73.35 -4.88,14.64 -126.81,80.54 -126.81,80.54z"/>
    <path class="fil5" d="M4808.05 3395.71c16.38,7.43 45.85,21.85 67.89,38.84 3.72,-8.4 7.21,-16.41 10.34,-23.62 7.79,-18.13 12.86,-31.22 12.86,-31.22 0,-17.93 -42.33,-42.33 -60.27,-34.13 -5.46,2.53 -12.67,13.64 -20.29,28.28 -3.49,6.82 -7.01,14.25 -10.53,21.85z"/>
    <path class="fil25" d="M4787.98 4073.72l-14.59 0c-4.88,-0.66 -8.51,-1.91 -13.5,-2.5 -7.63,-0.88 -11.12,1.89 -11.84,2.5l-0.11 0.14 -61.99 0c-1.56,-1.97 -0.05,-6.51 1.42,-9.87 0.96,-2.3 3.12,-4.02 5.78,-4.71 6.57,-1.67 19.52,-3.16 31.39,-12.67 6.68,-5.35 32.24,-19.63 32.24,-19.63l0.14 -0.03c0.55,0.03 3.25,0.75 14.86,9.42 6.02,4.5 16.25,-6.31 16.25,-6.31 0,0 1.94,1.41 3.38,4.02 1.14,2.07 2,4.9 1.33,8.42 -0.94,4.94 2.05,14.11 4.44,20.32 1.44,3.75 2.66,6.44 2.66,6.44 0,0 0.69,3.08 -11.86,4.46z"/>
    <path class="fil22" d="M4791.41 4034.08c-3.5,2.16 -10.84,6.46 -15.72,7.01 -6.6,0.75 -18.91,-14.11 -18.91,-14.11l0.14 -0.03c0.55,0.03 3.25,0.75 14.86,9.42 6.02,4.5 16.25,-6.31 16.25,-6.31 0,0 1.94,1.41 3.38,4.02z"/>
    <path class="fil22" d="M4787.98 4073.72l-14.59 0c-4.88,-0.66 -8.51,-1.91 -13.5,-2.5 -7.63,-0.88 -11.12,1.89 -11.84,2.5l-0.11 0.14 -61.99 0c-1.56,-1.97 -0.05,-6.51 1.42,-9.87 1.85,-1.5 2.4,6.4 3.43,7.68 1.06,1.24 50.57,0.44 53.42,-1.39 2.86,-1.83 11.46,-5.04 23.4,-2.52 10.43,2.19 25.76,-3.43 29.56,-4.94 1.44,3.75 2.66,6.44 2.66,6.44 0,0 0.69,3.08 -11.86,4.46z"/>
    <path class="fil23" d="M6967.88 4032.19c5.33,0 9.69,-4.33 9.69,-9.67 0,-120.02 -97.68,-217.69 -217.71,-217.69 -27.72,0 -54.71,5.16 -80.22,15.28 -4.93,1.96 -7.37,7.59 -5.38,12.55 1.98,4.94 7.54,7.4 12.58,5.44 23.19,-9.23 47.79,-13.92 73.02,-13.92 109.37,0 198.32,88.97 198.32,198.34 0,5.34 4.37,9.67 9.7,9.67z"/>
    <path class="fil21" d="M7142.33 3562.85c0,0 -14.74,30.7 -33.34,73.23 -20.92,47.65 -46.72,110.22 -62.08,161.09 -8.16,26.93 -13.38,50.55 -13.38,66.99 0,5.62 21.77,28.53 28.01,37.26 39.63,55.14 93.77,128.77 93.77,128.77l14.74 -3.71c0,0 -20.69,-92.07 -50.85,-138.07 -5.9,-9.03 -22.63,-20.04 -21.78,-21.04l0 -0.03c2.61,-3.24 9.13,-11.41 17.92,-23.09 24.44,-32.13 66.84,-90.74 95.3,-145.24 1.76,-3.39 3.46,-6.77 5.11,-10.15 15.02,-30.41 24.89,-58.91 23.92,-80.04l-97.34 -45.97z"/>
    <path class="fil29" d="M7183.15 4030.06l-10.15 6.43c-3.74,1.61 -6.92,2.21 -10.66,3.96 -5.78,2.67 -6.8,6.38 -6.97,7.18l-0.06 0.17 -43.2 27.31c-2.04,-0.86 -3.29,-5.1 -3.91,-8.4 -0.46,-2.22 0.17,-4.55 1.7,-6.24 3.74,-4.24 12.02,-11.12 15.53,-23.84 1.99,-7.16 12.7,-29.67 12.7,-29.67l0.06 -0.08c0.39,-0.23 2.61,-0.83 15.02,0.89 6.47,0.86 8.22,-12.18 8.22,-12.18 0,0 2.04,0.28 4.37,1.7 1.81,1.13 3.8,2.99 5.1,6.04 1.82,4.29 8.45,10.23 13.21,14.06 2.89,2.32 5.05,3.9 5.05,3.9 0,0 2.04,2.14 -6.01,8.77z"/>
    <path class="fil30" d="M7165.8 3997.29c-1.36,3.26 -4.37,9.87 -7.49,12.44 -4.19,3.52 -20.18,-2.77 -20.18,-2.77l0.06 -0.08c0.39,-0.23 2.61,-0.83 15.02,0.89 6.47,0.86 8.22,-12.18 8.22,-12.18 0,0 2.04,0.28 4.37,1.7z"/>
    <path class="fil30" d="M7183.15 4030.06l-10.15 6.43c-3.74,1.61 -6.92,2.21 -10.66,3.96 -5.78,2.67 -6.8,6.38 -6.97,7.18l-0.06 0.17 -43.2 27.31c-2.04,-0.86 -3.29,-5.1 -3.91,-8.4 0.56,-2 4.87,4.02 6.23,4.54 1.36,0.53 35.44,-21.93 36.51,-24.64 1.08,-2.69 5.45,-9.01 15.03,-12.31 8.39,-2.86 16.21,-14.06 18.14,-16.91 2.89,2.32 5.05,3.9 5.05,3.9 0,0 2.04,2.14 -6.01,8.77z"/>
    <polygon class="fil7" points="7129.91,4057.23 7245.91,3694.49 7226.29,3688.22 7110.35,4050.98 "/>
    <polygon class="fil7" points="7139.66,4058.25 7413.38,4034.44 6905.74,3691.22 6934.77,3750.68 7353.91,4018.99 7137.9,4037.79 "/>
    <polygon class="fil7" points="7102.75,4042.17 7120.05,4031.05 6909.37,3693.63 6884.88,3719.03 "/>
    <path class="fil22" d="M7074.01 3994.07l-38.55 22.23c-4.48,2.61 -6.07,8.46 -3.46,12.98 2.61,4.54 8.45,6.1 12.98,3.49l38.55 -22.26c4.48,-2.6 6.07,-8.45 3.46,-12.97 -2.6,-4.53 -8.44,-6.1 -12.98,-3.47z"/>
    <polygon class="fil22" points="7066.36,4008.4 7114.94,4062.16 7119.42,4058.28 7070.83,4004.52 "/>
    <path class="fil28" d="M7222.83 3824.23c2.89,1.03 6.07,0.7 8.68,-0.88 92.35,-55.78 220.09,-34.82 257.05,-27.09l0.06 0.03c2.04,0.41 3.97,-1.14 3.97,-3.22l0 -7.2c0,-5.52 -4.09,-10.21 -9.53,-11.04 -19.95,-2.97 -66.67,-9.34 -92.75,-9.45 -0.74,-0.03 -1.42,-0.03 -2.1,-0.03 -58.51,0 -108.97,10.48 -150.41,31.13 -8.5,4.25 -18.31,4.83 -27.21,1.7l-11.4 -4c-6.52,-2.3 -13.61,1.14 -15.87,7.63 -1.48,4.18 0.68,8.78 4.93,10.28l34.58 12.14z"/>
    <path class="fil22" d="M7308.61 3683.65c0,0 3.74,-16.83 -6.8,-17.97 -10.55,-1.13 -49.1,7.13 -59.3,5.99 -10.27,-1.14 -63.9,-9.98 -73.31,-0.86 -9.41,9.15 -5.44,17.14 13.38,18.83 18.82,1.71 43.94,4.85 51.08,10.83 7.09,5.99 58.74,23.68 74.95,-16.82z"/>
    <path class="fil22" d="M7171.47 4054.09c0,-28.33 -22.96,-51.31 -51.31,-51.31 -28.41,0 -51.37,22.98 -51.37,51.31 0,28.37 22.96,51.34 51.37,51.34 28.35,0 51.31,-22.97 51.31,-51.34z"/>
    <polygon class="fil22" points="7399.49,4025.59 7456.53,3866.65 7452.22,3865.1 7395.19,4024.04 "/>
    <polygon class="fil22" points="7556.88,4098.78 7558.69,4094.6 7397.34,4025.26 7291.21,3873.69 7287.47,3876.32 7394.33,4028.95 7394.9,4029.2 "/>
    <path class="fil22" d="M7459.82 4202.36l4.31 -1.44c-1.14,-3.44 -63.5,-167.65 -66.17,-174.64l-1.64 -4.27 -100.52 159 3.85 2.44 95.65 -151.26c22.85,60.13 63.67,167.56 64.52,170.17z"/>
    <polygon class="fil22" points="7396.21,4017.94 7575.3,3987.14 7574.51,3982.64 7395.41,4013.45 "/>
    <polygon class="fil22" points="7382.26,4015.28 7386.57,4013.84 7334.12,3856.42 7329.76,3857.87 "/>
    <polygon class="fil22" points="7396.21,4029.47 7396.83,4029.14 7561.13,3945.86 7559.03,3941.78 7395.47,4024.73 7219.37,3995.21 7218.64,3999.7 "/>
    <path class="fil22" d="M7329.53 4196.65c0.97,-2.86 43.15,-106.57 66.73,-164.6l91.17 143.42 3.85 -2.44 -95.93 -150.87 -1.64 4.07c-2.72,6.77 -67.35,165.54 -68.49,168.97l4.31 1.45z"/>
    <polygon class="fil22" points="7572.3,4055.59 7572.98,4051.07 7396.15,4024.84 7395.47,4029.36 "/>
    <polygon class="fil22" points="7406.64,4003.5 7504.78,3890.58 7501.32,3887.58 7403.24,4000.5 "/>
    <polygon class="fil22" points="7401.54,4205.24 7406.07,4204.85 7392.41,4039.45 7387.81,4039.84 "/>
    <polygon class="fil22" points="7248.86,4128.23 7405.11,4019.85 7402.5,4016.11 7246.25,4124.48 "/>
    <polygon class="fil22" points="7525.36,4149.63 7528.64,4146.41 7398.08,4014.75 7398.08,3843.45 7393.54,3843.45 7393.54,4016.64 "/>
    <path class="fil23" d="M7429.49 4027.12c0,-18.61 -15.09,-33.66 -33.68,-33.66 -18.54,0 -33.62,15.05 -33.62,33.66 0,18.57 15.08,33.63 33.62,33.63 18.59,0 33.68,-15.06 33.68,-33.63z"/>
    <path class="fil24" d="M7563.57 4054.28c-1.48,9.35 -3.74,18.41 -6.75,27.2 -1.19,3.58 -2.49,7.13 -3.97,10.59 -0.56,1.42 -1.19,2.8 -1.81,4.19 -7.2,16.14 -16.9,30.97 -28.58,43.97 -0.96,1.14 -1.98,2.27 -3.06,3.38 -9.12,9.7 -19.39,18.3 -30.55,25.62 -1.25,0.86 -2.5,1.66 -3.8,2.46 -8.51,5.25 -17.47,9.77 -26.82,13.51 -1.42,0.55 -2.84,1.08 -4.25,1.61 -15.31,5.59 -31.64,9.03 -48.59,9.98 -1.53,0.08 -3.06,0.16 -4.59,0.19 -1.65,0.06 -3.29,0.08 -4.99,0.08 -21.26,0 -42.24,-3.96 -61.8,-11.61 -1.42,-0.56 -2.83,-1.11 -4.25,-1.72 -6.86,-2.89 -13.49,-6.21 -19.96,-9.98 -0.96,-0.58 -1.92,-1.17 -2.94,-1.8 -1.25,-0.78 -2.56,-1.58 -3.8,-2.45 -18.66,-12.11 -34.7,-27.83 -47.29,-46.1l0 -0.03c-0.9,-1.25 -1.75,-2.49 -2.55,-3.77 -1.53,-2.32 -3,-4.71 -4.42,-7.12 -11.11,-19.02 -18.31,-40.07 -21.32,-61.88 -0.96,-6.76 -1.47,-13.59 -1.59,-20.46 -0.05,-1.03 -0.05,-2.03 -0.05,-3.05 0,-8.79 0.68,-17.41 1.98,-25.84 0.23,-1.52 0.46,-3.02 0.74,-4.52 3.06,-16.82 8.62,-32.82 16.27,-47.57 3.63,-7.07 7.77,-13.86 12.36,-20.32 10.83,-15.25 24.15,-28.64 39.35,-39.62 1.24,-0.89 2.49,-1.75 3.74,-2.61 10.32,-7.04 21.43,-12.97 33.16,-17.63 1.42,-0.55 2.84,-1.11 4.26,-1.64 17.46,-6.35 36.22,-9.92 55.84,-10.17 0.74,-0.02 1.53,-0.02 2.27,-0.02 0.74,0 1.53,0 2.27,0.02 18.76,0.25 36.79,3.55 53.63,9.4 1.42,0.5 2.83,1.02 4.25,1.58 15.2,5.74 29.31,13.61 42.07,23.23 1.19,0.92 2.38,1.86 3.57,2.8 18.43,14.69 33.68,33.08 44.73,54.03 0.74,1.36 1.42,2.72 2.1,4.08 3.23,6.6 6.07,13.42 8.39,20.43 1.42,4.05 2.61,8.16 3.69,12.34 0.39,1.47 0.73,2.94 1.07,4.43 2.73,12.09 4.2,24.68 4.2,37.6 0,7.68 -0.51,15.25 -1.53,22.68 -0.23,1.52 -0.4,3.02 -0.68,4.51zm-6.75 -141.11c-35.72,-50.43 -94.62,-83.42 -161.01,-83.42 -66.56,0 -125.52,33.13 -161.3,83.76 -4.7,6.65 -9.01,13.58 -12.87,20.81l0 0.03c-14.79,27.67 -23.19,59.22 -23.19,92.74 0,1.8 0.06,3.63 0.06,5.43 0.17,6.85 0.74,13.67 1.65,20.47 3.4,25.8 11.9,50.73 25,73.27 17.06,29.33 41.56,53.89 70.81,71.08 23.24,13.67 49.04,22.35 75.74,25.59l0.68 0.08c7.71,0.94 15.54,1.41 23.42,1.41 7.99,0 15.87,-0.47 23.58,-1.41 0.29,-0.03 0.51,-0.05 0.74,-0.08 56.36,-6.96 105.4,-37.73 136.69,-81.93 22.91,-32.18 36.34,-71.49 36.34,-113.91 0,-42.42 -13.43,-81.73 -36.34,-113.92z"/>
    <path class="fil29" d="M7559.2 4053.65c-0.62,4.13 -1.47,8.2 -2.38,12.23 -1.93,8.45 -4.53,16.68 -7.77,24.59 -0.56,1.41 -1.13,2.8 -1.75,4.18 -6.86,15.78 -16.1,30.3 -27.27,43.11 -0.97,1.14 -1.99,2.27 -3.06,3.41 -8.85,9.62 -18.83,18.21 -29.71,25.53 -1.31,0.87 -2.55,1.7 -3.86,2.5 -8.22,5.24 -16.95,9.76 -26.08,13.5 -1.41,0.59 -2.83,1.14 -4.25,1.66 -15.08,5.69 -31.13,9.26 -47.85,10.32 -1.47,0.14 -3.06,0.22 -4.59,0.25 -2.1,0.11 -4.2,0.14 -6.35,0.14 -21.04,0 -41.16,-3.91 -59.7,-11.06 -1.42,-0.53 -2.84,-1.11 -4.25,-1.7 -7.88,-3.26 -15.48,-7.15 -22.68,-11.56 -1.31,-0.8 -2.61,-1.6 -3.86,-2.44 -18.48,-11.98 -34.47,-27.53 -46.94,-45.66 -0.91,-1.24 -1.7,-2.52 -2.55,-3.8 -13.1,-20.21 -22,-43.41 -25.34,-68.36 -0.91,-6.71 -1.42,-13.56 -1.48,-20.49 0,-0.58 0,-1.17 0,-1.74 0,-9.1 0.74,-18 2.16,-26.7 0.22,-1.53 0.45,-3.03 0.79,-4.53 3.12,-16.52 8.67,-32.18 16.33,-46.6 3.74,-7.01 7.94,-13.75 12.58,-20.13 10.83,-14.83 23.99,-27.83 39.01,-38.42 1.25,-0.89 2.49,-1.74 3.8,-2.58 10.09,-6.73 20.98,-12.39 32.48,-16.8 1.42,-0.55 2.84,-1.08 4.26,-1.58l0.05 0c17.07,-6.04 35.44,-9.37 54.6,-9.45l0.74 0c1.3,0 2.55,0.02 3.8,0.05 18.2,0.39 35.66,3.74 51.99,9.54 1.47,0.5 2.89,1.02 4.3,1.61 14.52,5.6 28.07,13.22 40.31,22.51 1.25,0.89 2.44,1.83 3.63,2.8 17.86,14.28 32.77,32.16 43.54,52.51 0.68,1.36 1.42,2.72 2.05,4.07 4.93,9.93 8.9,20.41 11.73,31.33 0.4,1.47 0.8,2.94 1.14,4.44l0.05 0.3c2.84,12.09 4.31,24.68 4.31,37.63 0,7.07 -0.45,14.05 -1.3,20.87 -0.23,1.53 -0.4,3.02 -0.63,4.52zm4.48 -64.51c-0.34,-1.5 -0.74,-2.97 -1.08,-4.44 -1.58,-6.15 -3.51,-12.17 -5.78,-18.05 -1.93,-5.21 -4.19,-10.28 -6.63,-15.24 -0.68,-1.39 -1.36,-2.75 -2.1,-4.08 -11.17,-21.18 -26.65,-39.78 -45.18,-54.64 -1.2,-0.98 -2.39,-1.92 -3.58,-2.83 -28.29,-21.49 -63.27,-34.55 -101.25,-35.35 -1.25,-0.06 -2.5,-0.06 -3.8,-0.06l-0.74 0c-19.9,0.09 -39.06,3.55 -56.86,9.82 -1.42,0.5 -2.84,1.02 -4.26,1.58 -12.13,4.63 -23.64,10.59 -34.3,17.71 -1.3,0.83 -2.55,1.69 -3.79,2.58 -15.71,11.07 -29.49,24.68 -40.77,40.23 -4.7,6.43 -8.96,13.2 -12.7,20.27 -8.16,15.19 -14.06,31.76 -17.35,49.23 -0.28,1.5 -0.56,3.02 -0.79,4.52 -1.47,9.07 -2.27,18.38 -2.27,27.87 0,0.77 0,1.58 0.06,2.35 0.06,6.93 0.57,13.78 1.47,20.49 3.4,26.2 12.76,50.56 26.54,71.77 0.85,1.28 1.64,2.53 2.55,3.77 12.98,18.91 29.65,35.1 48.98,47.6 1.25,0.84 2.55,1.64 3.86,2.42 7.59,4.65 15.53,8.7 23.81,12.17 1.42,0.58 2.83,1.14 4.25,1.69 19.33,7.46 40.37,11.56 62.31,11.56 2.32,0 4.65,-0.06 6.97,-0.13 1.48,-0.06 3.01,-0.15 4.54,-0.26 17.4,-1.13 34.07,-4.85 49.72,-10.75 1.42,-0.53 2.83,-1.08 4.25,-1.67 9.64,-3.91 18.77,-8.65 27.44,-14.16 1.25,-0.81 2.55,-1.64 3.8,-2.5 11.34,-7.6 21.71,-16.5 30.9,-26.47 1.08,-1.12 2.1,-2.25 3.06,-3.39 11.85,-13.44 21.54,-28.72 28.8,-45.33 0.62,-1.38 1.19,-2.77 1.76,-4.18 0.45,-1.11 0.91,-2.25 1.3,-3.39 4.31,-11.22 7.43,-22.98 9.3,-35.17 0.23,-1.5 0.45,-3.03 0.62,-4.52 0.91,-7.19 1.36,-14.51 1.36,-21.9 0,-13.45 -1.53,-26.57 -4.42,-39.12z"/>
    <polygon class="fil22" points="6755.95,4025.59 6812.99,3866.65 6808.68,3865.1 6751.64,4024.04 "/>
    <polygon class="fil22" points="6913.34,4098.78 6915.15,4094.6 6753.74,4025.26 6647.67,3873.69 6643.98,3876.32 6750.79,4028.95 6751.36,4029.2 "/>
    <path class="fil22" d="M6816.28 4202.36l4.3 -1.44c-1.13,-3.44 -63.49,-167.65 -66.16,-174.64l-1.64 -4.27 -100.52 159 3.85 2.44 95.65 -151.26c22.84,60.13 63.67,167.56 64.52,170.17z"/>
    <polygon class="fil22" points="6752.66,4017.94 6931.76,3987.14 6930.97,3982.64 6751.87,4013.45 "/>
    <polygon class="fil22" points="6738.72,4015.28 6743.03,4013.84 6690.58,3856.42 6686.22,3857.87 "/>
    <polygon class="fil22" points="6752.61,4029.47 6753.29,4029.14 6917.53,3945.86 6915.49,3941.78 6751.93,4024.73 6575.83,3995.21 6575.1,3999.7 "/>
    <path class="fil22" d="M6685.99 4196.65c0.96,-2.86 43.15,-106.57 66.73,-164.6l91.17 143.42 3.85 -2.44 -95.93 -150.87 -1.64 4.07c-2.78,6.77 -67.35,165.54 -68.49,168.97l4.31 1.45z"/>
    <polygon class="fil22" points="6928.76,4055.59 6929.44,4051.07 6752.61,4024.84 6751.93,4029.36 "/>
    <polygon class="fil22" points="6763.1,4003.5 6861.23,3890.58 6857.78,3887.58 6759.69,4000.5 "/>
    <polygon class="fil22" points="6757.99,4205.24 6762.53,4204.85 6748.81,4039.45 6744.27,4039.84 "/>
    <polygon class="fil22" points="6605.26,4128.23 6761.57,4019.85 6758.96,4016.11 6602.65,4124.48 "/>
    <polygon class="fil22" points="6881.81,4149.63 6885.05,4146.41 6754.53,4014.75 6754.53,3843.45 6750,3843.45 6750,4016.64 "/>
    <path class="fil23" d="M6785.94 4027.12c0,-18.61 -15.08,-33.66 -33.67,-33.66 -18.6,0 -33.68,15.05 -33.68,33.66 0,18.57 15.08,33.63 33.68,33.63 18.59,0 33.67,-15.06 33.67,-33.63z"/>
    <path class="fil31" d="M6920.03 4054.28c-2.1,13.17 -5.79,25.85 -10.78,37.79 -0.56,1.42 -1.13,2.8 -1.81,4.19 -7.2,16.14 -16.84,30.97 -28.52,43.97 -0.96,1.14 -1.98,2.27 -3.06,3.38 -9.13,9.7 -19.39,18.33 -30.56,25.62 -1.24,0.86 -2.49,1.66 -3.8,2.46 -8.44,5.25 -17.46,9.77 -26.81,13.51 -1.42,0.55 -2.84,1.08 -4.25,1.61 -15.25,5.59 -31.58,9.03 -48.59,9.98 -1.53,0.08 -3.06,0.16 -4.54,0.19 -1.7,0.06 -3.34,0.08 -5.04,0.08 -21.26,0 -42.24,-3.96 -61.8,-11.61 -1.42,-0.56 -2.83,-1.11 -4.25,-1.72 -6.86,-2.89 -13.5,-6.21 -19.9,-9.98 -1.02,-0.58 -1.99,-1.17 -2.95,-1.8 -1.3,-0.78 -2.61,-1.58 -3.86,-2.45l-0.34 -0.22c-18.48,-12.08 -34.47,-27.72 -46.94,-45.88 -0.91,-1.25 -1.76,-2.52 -2.55,-3.8 -1.59,-2.32 -3.01,-4.71 -4.42,-7.12 -15.03,-25.81 -22.96,-55.34 -22.96,-85.39 0,-8.79 0.68,-17.41 1.98,-25.84 0.23,-1.52 0.45,-3.02 0.74,-4.52 7.99,-44.05 32.99,-82.26 67.92,-107.51 1.25,-0.89 2.49,-1.75 3.74,-2.61 0.85,-0.55 1.64,-1.11 2.49,-1.63 9.64,-6.35 19.9,-11.71 30.73,-16 1.42,-0.55 2.89,-1.11 4.31,-1.64 17.41,-6.35 36.23,-9.92 55.73,-10.17 0.8,-0.02 1.53,-0.02 2.33,-0.02 0.73,0 1.53,0 2.26,0.02 17.07,0.22 33.51,2.97 48.99,7.87 1.59,0.47 3.12,1 4.59,1.53 1.48,0.5 2.89,1.02 4.31,1.58 5.5,2.05 10.77,4.41 15.93,6.98 9.24,4.67 17.97,10.1 26.14,16.25 1.19,0.92 2.38,1.86 3.57,2.8 18.43,14.69 33.68,33.08 44.73,54.03 0.74,1.36 1.42,2.72 2.04,4.11 5.1,10.37 9.19,21.32 12.14,32.74 0.39,1.47 0.73,2.94 1.07,4.43 2.72,12.09 4.2,24.68 4.2,37.6 0,7.68 -0.57,15.25 -1.53,22.68 -0.23,1.52 -0.46,3.02 -0.68,4.51zm-64.64 -195.36c-5.1,-3.19 -10.43,-6.13 -15.87,-8.79 -8.28,-4.13 -16.95,-7.68 -25.85,-10.59 -19.34,-6.35 -39.97,-9.79 -61.4,-9.79 -29.43,0 -57.38,6.49 -82.49,18.1 -3.58,1.64 -7.15,3.42 -10.61,5.27 -61.96,33.33 -104.26,98.81 -104.26,173.97 0,34.9 9.24,69.17 26.71,99.17 17.06,29.33 41.55,53.89 70.81,71.08 2.21,1.31 4.48,2.58 6.74,3.77 21.43,11.51 44.85,18.88 69,21.82 0.23,0.05 0.46,0.08 0.68,0.08 7.77,0.94 15.59,1.41 23.42,1.41 7.99,0 15.87,-0.47 23.64,-1.41l0.68 -0.08c97.4,-12.03 173.03,-95.26 173.03,-195.84 0,-71.03 -37.76,-133.43 -94.23,-168.17z"/>
    <path class="fil29" d="M6915.66 4053.65c-1.98,12.81 -5.44,25.14 -10.15,36.82 -0.56,1.41 -1.13,2.8 -1.75,4.18 -6.86,15.78 -16.11,30.3 -27.27,43.11 -0.97,1.14 -1.99,2.27 -3.07,3.41 -8.84,9.62 -18.82,18.21 -29.7,25.53 -1.31,0.87 -2.56,1.7 -3.86,2.5 -8.22,5.24 -16.95,9.76 -26.08,13.5 -1.42,0.59 -2.83,1.14 -4.31,1.66 -15.02,5.69 -31.07,9.26 -47.79,10.32 -1.48,0.14 -3.01,0.22 -4.54,0.25 -2.15,0.11 -4.25,0.14 -6.4,0.14 -21.04,0 -41.16,-3.91 -59.7,-11.06 -1.42,-0.53 -2.84,-1.11 -4.26,-1.7 -7.88,-3.26 -15.47,-7.15 -22.67,-11.56 -1.31,-0.8 -2.55,-1.6 -3.86,-2.44 -0.34,-0.22 -0.74,-0.44 -1.08,-0.72 -18.02,-11.86 -33.62,-27.17 -45.86,-44.94 -0.85,-1.24 -1.76,-2.52 -2.55,-3.8 -16.95,-26.11 -26.82,-57.22 -26.82,-90.59 0,-9.1 0.74,-18 2.15,-26.7 0.23,-1.53 0.46,-3.03 0.8,-4.53 8.22,-43.27 33.22,-80.67 67.98,-105.12 1.24,-0.92 2.49,-1.77 3.74,-2.61l0.56 -0.36c9.98,-6.59 20.64,-12.11 31.92,-16.44 1.42,-0.55 2.84,-1.08 4.31,-1.58 17.07,-6.04 35.44,-9.37 54.54,-9.45l0.8 0c1.3,0 2.55,0.02 3.79,0.05 16.45,0.37 32.32,3.11 47.23,7.96 1.65,0.5 3.18,1.02 4.76,1.58 1.42,0.5 2.84,1.02 4.26,1.61 5.33,2.05 10.54,4.38 15.59,6.95 8.73,4.47 17.01,9.65 24.77,15.56 1.25,0.89 2.44,1.83 3.63,2.8 17.86,14.28 32.71,32.16 43.54,52.51 0.68,1.36 1.42,2.72 2.04,4.07 4.94,9.93 8.9,20.41 11.74,31.33 0.4,1.47 0.79,2.94 1.13,4.44 2.84,12.17 4.31,24.87 4.31,37.93 0,7.07 -0.39,14.05 -1.3,20.87 -0.17,1.53 -0.34,3.02 -0.57,4.52zm4.48 -64.51c-0.34,-1.5 -0.74,-2.97 -1.13,-4.44 -2.95,-11.62 -7.15,-22.76 -12.36,-33.29 -0.68,-1.39 -1.36,-2.75 -2.1,-4.08 -11.17,-21.18 -26.65,-39.78 -45.19,-54.64 -1.19,-0.98 -2.38,-1.92 -3.57,-2.83 -8.33,-6.32 -17.18,-11.9 -26.53,-16.66 -8,-4.05 -16.27,-7.49 -24.89,-10.29l0 0c-6.46,-2.11 -13.04,-3.83 -19.84,-5.13 -9.7,-1.97 -19.73,-3.08 -30,-3.27 -1.24,-0.06 -2.49,-0.06 -3.79,-0.06l-0.8 0c-4.65,0.03 -9.24,0.22 -13.83,0.61 -14.91,1.25 -29.31,4.39 -42.98,9.21 -1.41,0.5 -2.83,1.02 -4.25,1.58 -10.43,3.96 -20.35,8.9 -29.71,14.74 -1.53,0.95 -3.06,1.95 -4.59,2.97 -1.3,0.83 -2.55,1.69 -3.8,2.58 -36.22,25.53 -62.3,64.57 -70.81,109.73 -0.28,1.5 -0.56,3.02 -0.79,4.52 -1.53,9.07 -2.27,18.38 -2.27,27.87 0,34.87 10.32,67.36 28.06,94.61 0.85,1.28 1.7,2.55 2.56,3.8 13.04,18.91 29.7,35.1 48.98,47.57 0.91,0.59 1.76,1.17 2.66,1.7 0.4,0.28 0.8,0.52 1.19,0.75 7.6,4.62 15.54,8.7 23.82,12.14 1.41,0.58 2.77,1.14 4.19,1.69 19.39,7.46 40.43,11.56 62.37,11.56 2.32,0 4.64,-0.06 6.97,-0.13 1.53,-0.06 3.06,-0.15 4.59,-0.26 17.35,-1.13 34.08,-4.85 49.67,-10.75 1.41,-0.53 2.83,-1.08 4.25,-1.67 9.58,-3.91 18.76,-8.65 27.44,-14.16 1.25,-0.81 2.55,-1.64 3.8,-2.5 11.34,-7.6 21.71,-16.5 30.9,-26.47 1.07,-1.12 2.09,-2.25 3.06,-3.39 11.85,-13.44 21.54,-28.72 28.8,-45.33 0.62,-1.38 1.19,-2.77 1.76,-4.18 4.93,-12.23 8.56,-25.15 10.6,-38.56 0.22,-1.5 0.45,-3.03 0.62,-4.52 0.91,-7.19 1.36,-14.51 1.36,-21.9 0,-13.45 -1.53,-26.57 -4.42,-39.12z"/>
    <path class="fil26" d="M7263.14 3563.47c0,0 41.73,66.17 -9.86,102.55 -51.54,36.39 -225.19,53.81 -216.69,60.85 26.02,21.6 49.72,54.81 48.47,253.64l-12.86 6.63c0,0 -123.88,-269.39 -115.61,-301.5 5.56,-21.23 186.19,-136.26 306.55,-122.17z"/>
    <path class="fil28" d="M7163.02 3701.14c0,0 105.23,-17.41 116.05,-54.56 8.11,-27.75 10.49,-39.06 -37.19,-128.72 0,0 -19.9,37.85 -123.93,29.08 0,0 0.56,4.91 0.56,11.56 -0.17,11.01 -1.87,26.7 -10.48,31.22l-0.51 0.25c-13.72,6.24 -34.93,18.85 -38.1,20.04 -0.12,0 63.84,12.26 93.6,91.13z"/>
    <path class="fil23" d="M7108.03 3589.72c46.37,-13.7 91.62,-12.26 118.32,-37.18 -39.29,-10.09 -86.57,5.96 -107.84,5.96 -0.17,11.01 -1.87,26.7 -10.48,31.22z"/>
    <path class="fil29" d="M7102.47 3990.16l-10.83 5.21c-3.91,1.17 -7.09,1.42 -11.05,2.72 -6.01,1.97 -7.49,5.54 -7.77,6.32l-0.06 0.14 -46.03 22.12c-1.99,-1.08 -2.72,-5.46 -2.95,-8.78 -0.23,-2.28 0.68,-4.49 2.38,-6.02 4.25,-3.77 13.27,-9.65 18.25,-21.87 2.78,-6.85 15.99,-27.98 15.99,-27.98l0.12 -0.08c0.45,-0.2 2.72,-0.53 14.85,2.61 6.24,1.6 9.53,-11.12 9.53,-11.12 0,0 1.98,0.49 4.08,2.19 1.7,1.33 3.51,3.41 4.42,6.6 1.3,4.46 7.2,11.12 11.51,15.49 2.61,2.64 4.53,4.44 4.53,4.44 0,0 1.82,2.35 -6.97,8.01z"/>
    <path class="fil30" d="M7088.98 3955.62c-1.7,3.05 -5.39,9.28 -8.85,11.5 -4.53,2.97 -19.73,-5.1 -19.73,-5.1l0.12 -0.08c0.45,-0.2 2.72,-0.53 14.85,2.61 6.24,1.6 9.53,-11.12 9.53,-11.12 0,0 1.98,0.49 4.08,2.19z"/>
    <path class="fil30" d="M7102.47 3990.16l-10.83 5.21c-3.91,1.17 -7.09,1.42 -11.05,2.72 -6.01,1.97 -7.49,5.54 -7.77,6.32l-0.06 0.14 -46.03 22.12c-1.99,-1.08 -2.72,-5.46 -2.95,-8.78 0.79,-1.92 4.36,4.54 5.67,5.21 1.24,0.69 37.76,-17.66 39.12,-20.22 1.41,-2.57 6.46,-8.34 16.38,-10.47 8.62,-1.89 17.75,-12.09 19.96,-14.7 2.61,2.64 4.53,4.44 4.53,4.44 0,0 1.82,2.35 -6.97,8.01z"/>
    <path class="fil28" d="M6840.71 3771.48c2.95,-7.38 9.81,-11.98 17.24,-12.45 85.21,-195.7 86.12,-197.26 87.36,-199.36l12.36 24.42c0.63,-1.08 -192.65,433.57 -192.65,433.57l-19.05 -7.73 94.74 -238.45z"/>
    <path class="fil22" d="M7043.85 3588.83c4.08,-13.61 -3.69,-27.91 -17.29,-31.96 -13.61,-4.05 -27.95,3.71 -31.98,17.32 -4.03,13.59 3.69,27.93 17.35,31.97 13.61,4.02 27.89,-3.72 31.92,-17.33z"/>
    <path class="fil22" d="M6884.71 3543.84c4.02,-13.61 -3.75,-27.92 -17.35,-31.97 -13.61,-4.04 -27.9,3.72 -31.92,17.3 -4.08,13.61 3.68,27.95 17.29,31.99 13.61,4.02 27.95,-3.71 31.98,-17.32z"/>
    <polygon class="fil22" points="6865.49,3561.11 7015.16,3598.67 7017.77,3568.46 6868.04,3530.89 "/>
    <path class="fil26" d="M7011.76 3531.28c0,0 -14.12,9.23 -24.04,8.82 -9.98,-0.42 -22.62,3.74 -22.62,3.74 0,0 -13.32,3.93 -14.57,19.71 0,0 0.06,4.57 20.98,-1.86 4.59,-1.41 15.53,1.25 19.27,0 3.74,-1.25 15.08,-13.53 25,-13.2l-4.02 -17.21z"/>
    <path class="fil21" d="M6936.35 3513.42c0,0 -14.06,9.24 -24.03,8.82 -9.98,-0.42 -22.62,3.74 -22.62,3.74 0,0 -13.33,3.94 -14.58,19.71 0,0 0.34,6.49 20.98,-1.85 5.67,-2.3 15.59,1.25 19.33,0 3.69,-1.25 17.41,-11.76 26.88,-14.37l-5.96 -16.05z"/>
    <path class="fil23" d="M7113.92 3135c20.58,3.71 30.11,14.83 43.15,46.51 13.66,33.08 -2.84,63.52 -15.99,59.56 -8.39,-2.55 -11.34,11.86 -11.34,11.86l-80.05 -69.94c0,0 11.62,-51.38 64.23,-47.99z"/>
    <path class="fil21" d="M7067.04 3325.73c0,0 27.89,15.7 24.6,55.45 -3.29,39.76 -39.74,102.42 -67.47,117.97 -21.99,12.31 -85.49,31.55 -85.49,31.55l-2.33 -17.28c0,0 51.71,-33.74 62.94,-45.27 23.98,-24.73 46.77,-152.04 67.75,-142.42z"/>
    <path class="fil26" d="M7069.81 3415.11c1.31,8.96 3.63,16.67 6.52,24.01 2.44,6.16 5.28,12.01 8.17,18.11 8.45,17.91 28.4,26.75 29.08,61.21 0.29,11.87 100.52,-38.29 101.15,-79.79l0 -0.33c0.22,-2 0.45,-7.37 0.79,-14.5 0.74,-17.44 1.7,-45.22 2.04,-59.3 0,-0.33 0,-0.64 0.06,-0.94 0.11,-6.05 0.34,-10.4 0.56,-11.53 -13.43,-57.15 -44.33,-57.37 -54.88,-57.2 -1.36,0.03 -2.77,0.05 -4.19,0.14 -5.84,0.25 -11.28,-2.5 -14.63,-7.24 -5.9,-8.4 -12.53,-22.81 -16.55,-42.53l-2.44 1.03 -40.48 17.22c0,0 3.74,13.08 6.4,25.59 1.14,5.35 2.05,10.59 2.44,14.66 0.29,3.94 -1.98,7.6 -5.61,9.01l0 0.03c-0.74,1.61 -24.89,56.92 -18.43,102.35z"/>
    <path class="fil21" d="M7076.33 3439.12c2.44,6.16 5.28,12.01 8.17,18.11 8.45,17.91 28.4,26.75 29.08,61.21 0.63,0.06 1.25,0.11 1.87,0.17 74.05,5.79 99.28,-80.29 99.28,-80.29 0.22,-2 0.45,-7.37 0.79,-14.5l-133.63 0.19c0,0 -2.78,6.08 -5.56,15.11z"/>
    <path class="fil5" d="M7057.57 3398.34c0.39,1.11 0.79,2.22 1.25,3.33 12.81,30.58 41.21,188.05 41.21,188.05 0.34,-0.22 115.89,7.57 161.64,-55.62 2.27,6.69 -8.62,-31.82 -25.46,-83.55 -12.64,-38.82 -19.1,-66.2 -18.65,-86.03 0,-0.33 0,-0.64 0.06,-0.94 -2.95,-2.36 -5.84,-4.55 -8.51,-6.66 -8.44,-6.68 -14.79,-12.36 -14.96,-19.38 -0.06,-2.74 0.17,-5.57 0.56,-8.37 0.17,-1.33 0.34,-2.66 0.63,-3.99 2.66,-13.92 9.01,-26.36 9.01,-26.36 -14.57,-6.55 -41.05,-3.97 -41.05,-3.97 0,0 -9.92,22.18 -31.01,35.4 -5.89,3.72 -27.04,12.98 -37.42,3.33 -6.91,-6.38 -7.08,-19.43 -6.63,-20.82l0 -0.03c-23.98,8.37 -32.71,15.83 -32.71,15.83 13.89,9.76 -7.88,40.2 2.04,69.78z"/>
    <path class="fil21" d="M7085.01 3263.47c0,0 3.74,13.08 6.4,25.59 23.48,-5.6 31.47,-29.78 34.08,-42.81l-40.48 17.22z"/>
    <path class="fil26" d="M7079.62 3276.97c0,0 56.07,-10.79 48.82,-45.63 -7.26,-34.85 -4.88,-59.69 -40.99,-54.29 -36.18,5.41 -40.31,20.16 -40.71,32.38 -0.45,12.23 18.08,69.45 32.88,67.54z"/>
    <path class="fil23" d="M7044.3 3189.72c6.46,-12.31 13.5,-11.36 17.8,-8.98 27.05,-23.2 51.94,-2.5 51.94,-2.5 8.95,24.23 29.99,34.77 29.99,34.77 0,0 -8.85,8.43 -33.62,7.29 -7.6,-0.33 -15.03,-4.07 -21.77,-9.15 12.81,13.97 28.17,22.73 28.17,22.73 -30.78,-7.09 -50.23,-43.77 -52.21,-47.65 -2.78,3.77 -8.11,11.84 -8.79,18.8 -0.96,9.45 1.64,27.97 -3.8,28.47 0,0 -17.35,-25.37 -7.71,-43.78z"/>
    <path class="fil26" d="M7011.76 3531.28l4.02 17.21c0,0 94.17,-12.86 124.9,-30.77 30.79,-17.91 77.39,-123.2 81.08,-167.73 0.22,-2.35 0.34,-4.6 0.39,-6.76 1.14,-38.43 -17.8,-44.41 -17.8,-44.41 -7.6,-3.47 -17.01,9.5 -26.99,29.82 -20.92,42.56 -44.33,117.3 -58.22,139.43 -10.66,16.99 -107.38,63.21 -107.38,63.21z"/>
    <path class="fil5" d="M7177.36 3328.64c25.8,-6.09 44.79,14.59 44.79,14.59 1.14,-38.43 -17.8,-44.41 -17.8,-44.41 -7.6,-3.47 -17.01,9.5 -26.99,29.82z"/>
    <path class="fil5" d="M7055.53 3328.56c0,0 -9.41,8.76 -13.04,28.7 0,0 13.94,0.08 20.46,13.72 0,0 5.16,-40.26 -7.42,-42.42z"/>
    <path class="fil23" d="M7110.07 3147.47c0,0 31.01,-38.42 70.13,-27.64 39.12,10.78 61.4,55.98 79.54,48.54 30.56,-12.47 39.01,28.48 26.82,58.28 -10.66,26.03 -56.64,35.96 -84.48,7.46 -20.29,-20.8 -48.19,-109.57 -82.6,-79.91 -34.36,29.7 -9.41,-6.73 -9.41,-6.73z"/>
    <polygon class="fil18" points="2811.24,3738.51 2837.43,3718.22 2790.14,3718.19 "/>
    <polygon class="fil18" points="4104.14,3893.6 4122.13,3879.68 4062.47,3879.68 "/>
   </g>
  </g>
  <polygon class="fil32" points="-0,0 8466.64,0 8466.64,4233.32 -0,4233.32 "/>
 </g>
</svg>
