<?xml version="1.0" encoding="UTF-8"?>
<!DOCTYPE svg PUBLIC "-//W3C//DTD SVG 1.0//EN" "http://www.w3.org/TR/2001/REC-SVG-20010904/DTD/svg10.dtd">
<!-- Creator: CorelDRAW 2021.5 -->
<svg xmlns="http://www.w3.org/2000/svg" xml:space="preserve" width="71.12mm" height="9.2863mm" version="1.0" style="shape-rendering:geometricPrecision; text-rendering:geometricPrecision; image-rendering:optimizeQuality; fill-rule:evenodd; clip-rule:evenodd"
viewBox="0 0 7098.47 926.86"
 xmlns:xlink="http://www.w3.org/1999/xlink"
 xmlns:xodm="http://www.corel.com/coreldraw/odm/2003">
 <defs>
  <style type="text/css">
   <![CDATA[
    .fil0 {fill:#009A00;fill-rule:nonzero}
    .fil1 {fill:#FF6600;fill-rule:nonzero}
   ]]>
  </style>
 </defs>
 <g id="Layer_x0020_1">
  <metadata id="CorelCorpID_0Corel-Layer"/>
  <g id="_2278826753632">
   <path class="fil0" d="M5926.64 593.19c0,60.91 -15,116.75 -45.01,167.5 -30.01,50.75 -70.19,91.15 -120.5,121.16 -50.31,30 -106.36,45.01 -168.16,45.01 -54.72,0 -105.48,-11.92 -152.27,-35.75 -46.78,-23.83 -85.62,-56.05 -116.52,-96.66 -30.01,40.6 -68.41,72.82 -115.2,96.66 -46.78,23.83 -97.53,35.75 -152.27,35.75 -60.9,0 -116.74,-15.01 -167.49,-45.01 -50.75,-30.01 -91.15,-70.41 -121.16,-121.16 -30,-50.75 -45.01,-106.59 -45.01,-167.5l0 -593.19 132.41 0 0 593.19c0,37.08 9.04,70.84 27.15,101.3 18.1,30.45 42.37,54.73 72.82,72.82 30.46,18.11 64.22,27.15 101.29,27.15 36.2,0 69.3,-8.6 99.31,-25.82 30.02,-17.21 54.07,-40.38 72.17,-69.52 18.09,-29.12 28.03,-61.35 29.78,-96.66l0 -602.46 133.74 0 0 593.19c0,37.08 9.04,70.84 27.15,101.3 18.09,30.45 42.37,54.73 72.82,72.82 30.45,18.11 64.22,27.15 101.29,27.15 37.08,0 70.84,-9.04 101.3,-27.15 30.45,-18.1 54.74,-42.37 72.83,-72.82 18.09,-30.45 27.14,-64.22 27.14,-101.3l0 -593.19 132.41 0 0 593.19z"/>
   <polygon class="fil0" points="4455.57,529.64 3808.1,529.64 3808.1,397.23 4455.57,397.23 "/>
   <polygon class="fil0" points="4568.12,926.86 3609.49,926.86 3609.49,0 4568.12,0 4568.12,132.41 3741.9,132.41 3741.9,794.46 4568.12,794.46 "/>
   <path class="fil0" d="M2494.59 926.86l-132.41 0 0 -926.86 66.2 0c64.43,0 134.39,12.37 209.87,37.08 75.48,24.71 151.16,59.59 227.08,104.6 75.92,45.01 147.64,98.65 215.17,160.88 67.52,62.23 125.56,131.3 174.11,207.21l0 -509.78 132.41 0 0 926.86 -132.41 0c0,-81.22 -16.55,-159.12 -49.65,-233.7 -33.11,-74.59 -77.02,-143.44 -131.76,-206.55 -54.72,-63.12 -115.41,-119.17 -182.05,-168.16 -66.65,-49 -134.39,-89.16 -203.25,-120.49 -68.85,-31.35 -133.29,-51.43 -193.31,-60.26l0 789.16z"/>
   <polygon class="fil0" points="2085.44,529.64 1437.97,529.64 1437.97,397.23 2085.44,397.23 "/>
   <polygon class="fil0" points="2197.99,926.86 1239.36,926.86 1239.36,0 2197.99,0 2197.99,132.41 1371.76,132.41 1371.76,794.46 2197.99,794.46 "/>
   <path class="fil0" d="M1069.86 926.86l-178.76 0 -278.05 -264.82 -406.49 0 0 -131.09 532.28 0c37.08,0 70.63,-9.04 100.64,-27.14 30.01,-18.1 53.85,-42.37 71.49,-72.82 17.66,-30.45 26.49,-63.78 26.49,-99.97 0,-37.08 -8.83,-70.63 -26.49,-100.64 -17.65,-30 -41.48,-53.84 -71.49,-71.49 -30.01,-17.67 -63.56,-26.49 -100.64,-26.49l-606.42 0 0 794.46 -132.41 0 0 -926.86 738.83 0c60.91,0 116.53,14.79 166.84,44.37 50.31,29.56 90.26,69.51 119.83,119.82 29.57,50.31 44.36,105.93 44.36,166.84 0,54.73 -12.14,105.48 -36.41,152.27 -24.28,46.78 -57.38,85.4 -99.31,115.86 -41.92,30.45 -89.38,50.09 -142.34,58.92l278.06 268.79z"/>
   <g>
    <polygon class="fil1" points="6985.92,529.64 6338.44,529.64 6338.44,397.23 6985.92,397.23 "/>
    <polygon class="fil1" points="7098.47,926.86 6139.83,926.86 6139.83,0 7098.47,0 7098.47,132.41 6272.24,132.41 6272.24,794.46 7098.47,794.46 "/>
   </g>
  </g>
 </g>
</svg>
