<svg xmlns="http://www.w3.org/2000/svg" viewBox="0 0 500 500"><g id="freepik--background-complete--inject-186"><g id="freepik--aiZGp2--inject-186"><path d="M390.56,67.47a48.36,48.36,0,0,0-3.29,15H374V82.1c0-.34.07-.68.11-1a35.47,35.47,0,0,1,.88-5.23,40.24,40.24,0,0,1,2.95-8.19.29.29,0,0,1,.32-.2h12.32Z" style="fill:#ebebeb"></path><path d="M390.16,101H377.94a.27.27,0,0,1-.29-.19,37.65,37.65,0,0,1-3-9.24,38.47,38.47,0,0,1-.6-4.67.76.76,0,0,0,0-.16v-.37l.2,0H387c.24,0,.23,0,.25.24.08,1.07.15,2.14.25,3.2a40.55,40.55,0,0,0,.82,5,44,44,0,0,0,1.74,6C390.12,100.86,390.13,100.92,390.16,101Z" style="fill:#ebebeb"></path><path d="M441.52,104.86l-.1.18a36,36,0,0,1-3.46,4.49,34.15,34.15,0,0,1-5.08,4.68,36.06,36.06,0,0,1-11.88,6,36.89,36.89,0,0,1-5.09,1.09l-.5.08h-.29l-.28-.18.32-.23a39.2,39.2,0,0,0,9.63-9.34,44.59,44.59,0,0,0,3.94-6.53.28.28,0,0,1,.3-.19h12.49Z" style="fill:#ebebeb"></path><path d="M429.3,82.46H412.15v-15h13.39a.25.25,0,0,1,.27.18,41.65,41.65,0,0,1,2.73,8.79,44.47,44.47,0,0,1,.66,4.75C429.23,81.6,429.27,82,429.3,82.46Z" style="fill:#ebebeb"></path><path d="M429.2,86.47c0,.35,0,.7-.05,1-.08.84-.13,1.67-.25,2.51-.16,1.14-.34,2.29-.57,3.43a40.65,40.65,0,0,1-2.22,7.32.28.28,0,0,1-.31.22H412V86.47Z" style="fill:#ebebeb"></path><path d="M408.28,67.56v15H391.53c0-.39,0-.76.07-1.13.09-.84.15-1.68.29-2.51.2-1.28.42-2.55.69-3.81A39.44,39.44,0,0,1,395,67.74a.27.27,0,0,1,.29-.18h13Z" style="fill:#ebebeb"></path><path d="M408.3,86.66q0,7.07,0,14.12V101H394.91a.28.28,0,0,1-.3-.2,38.71,38.71,0,0,1-2.28-7.56c-.25-1.34-.44-2.68-.61-4-.11-.88-.13-1.77-.19-2.66,0,0,0,0,0-.09h16.55C408.26,86.45,408.3,86.5,408.3,86.66Z" style="fill:#ebebeb"></path><path d="M447.5,82.57H433.44a48.8,48.8,0,0,0-3.28-15.1h13.1a.28.28,0,0,1,.31.19A36.41,36.41,0,0,1,446.81,77a40.79,40.79,0,0,1,.69,5.28Z" style="fill:#ebebeb"></path><path d="M447.51,86.35c0,.34,0,.67-.05,1a36,36,0,0,1-3,12.22l-.6,1.3a.2.2,0,0,1-.21.14H430.55c.16-.45.32-.88.47-1.32a46.38,46.38,0,0,0,2.34-12c0-.4.05-.8.07-1.21,0-.1,0-.16.14-.15a.56.56,0,0,0,.13,0Z" style="fill:#ebebeb"></path><path d="M441.14,63.64l0,.06H428.64a.29.29,0,0,1-.3-.17,42.65,42.65,0,0,0-6.1-9.05,34.92,34.92,0,0,0-4.69-4.32c-.84-.64-1.71-1.25-2.56-1.87l-.14-.1.17-.12c0-.08,0-.16-.09-.27a36.82,36.82,0,0,1,26.21,15.84Z" style="fill:#ebebeb"></path><path d="M405.9,121.16a1.41,1.41,0,0,1-.36.06,32.26,32.26,0,0,1-4-.78,36.13,36.13,0,0,1-7.13-2.64,36.59,36.59,0,0,1-7.28-4.78,34,34,0,0,1-4.37-4.37,36.28,36.28,0,0,1-2.73-3.78l0-.11h11.65a.29.29,0,0,1,.29.19A42,42,0,0,0,401,117.26a39.43,39.43,0,0,0,4.75,3.81Z" style="fill:#ebebeb"></path><path d="M405.75,48.17c-.53.38-1.14.82-1.74,1.27a43.72,43.72,0,0,0-5.54,5.17,38.68,38.68,0,0,0-5.83,8.3c-.1.19-.18.39-.29.57a.23.23,0,0,1-.18.11H380.35a36.56,36.56,0,0,1,25.27-15.72l-.08.15Z" style="fill:#ebebeb"></path><path d="M424.18,104.87a39.59,39.59,0,0,1-5.66,7.67,36.23,36.23,0,0,1-6.47,5.49V104.87Z" style="fill:#ebebeb"></path><path d="M408.28,104.88v12.9a37.34,37.34,0,0,1-11.65-12.9Z" style="fill:#ebebeb"></path><path d="M423.8,63.58H412.15V51.29a35.49,35.49,0,0,1,6.54,5.48A41.63,41.63,0,0,1,423.8,63.58Z" style="fill:#ebebeb"></path><path d="M408.28,51.67v12H397.09A35.48,35.48,0,0,1,408.28,51.67Z" style="fill:#ebebeb"></path></g><path d="M332.41,119.4l-1.25-1.19.44-.48,1.26,1.2Z" style="fill:#a6a6a6"></path><path d="M326.7,188.22l0-.65c1.17,0,2.33-.1,3.45-.21l.07.65C329.06,188.12,327.88,188.19,326.7,188.22Zm-4.38-.07c-1.15-.07-2.32-.17-3.49-.31l.07-.64c1.16.13,2.32.24,3.45.3Zm12.21-.81-.13-.64c1.14-.23,2.27-.53,3.34-.86l.2.62C336.84,186.8,335.7,187.1,334.53,187.34Zm-20-.15c-1.12-.21-2.27-.45-3.42-.72l.15-.64c1.14.27,2.28.51,3.39.72Zm-7.65-1.84c-1.1-.33-2.22-.68-3.33-1.06l.2-.62c1.11.38,2.22.73,3.31,1.05Zm35.18-.48-.28-.59a28.12,28.12,0,0,0,3-1.65l.35.55A29.45,29.45,0,0,1,342,184.87Zm-42.62-2.08c-1.07-.42-2.16-.86-3.23-1.33l.26-.59c1.07.46,2.15.9,3.21,1.32Zm49.22-2.28-.44-.48a22.16,22.16,0,0,0,2.36-2.49l.51.41A24.46,24.46,0,0,1,348.63,180.51Zm-56.43-.86c-1-.49-2.07-1-3.13-1.56l.3-.57c1.05.54,2.08,1,3.11,1.55Zm-7-3.63c-1-.57-2-1.16-3-1.75l.33-.56c1,.59,2,1.17,3,1.75Zm68.26-1.73-.57-.31a21.91,21.91,0,0,0,1.39-3.13l.62.21A22.84,22.84,0,0,1,353.5,174.29Zm-75-2.33c-1-.64-1.95-1.28-2.9-1.94l.37-.53q1.42,1,2.88,1.92Zm-6.46-4.47c-.93-.69-1.86-1.39-2.78-2.1l.4-.51c.91.7,1.84,1.4,2.77,2.09Zm84-.69-.64-.11a26.92,26.92,0,0,0,.36-3.42l.65,0A28.4,28.4,0,0,1,356.05,166.8Zm-90.17-4.13c-.9-.74-1.8-1.49-2.68-2.25l.43-.5c.88.76,1.76,1.51,2.66,2.24Zm89.77-3.7c-.11-1.12-.27-2.27-.49-3.42l.63-.12c.23,1.17.4,2.34.51,3.48Zm-95.72-1.43c-.86-.78-1.71-1.57-2.56-2.36l.44-.47c.85.79,1.7,1.57,2.56,2.34Zm-5.71-5.35c-.84-.81-1.67-1.62-2.49-2.44l.45-.47,2.49,2.44Zm99.89-.83c-.33-1.07-.71-2.17-1.14-3.26l.61-.24c.43,1.11.82,2.23,1.15,3.31Zm-105.46-4.7-2.43-2.5.47-.45q1.22,1.26,2.43,2.49Zm102.6-2.53c-.49-1-1-2.06-1.59-3.08l.57-.32c.57,1,1.11,2.08,1.61,3.11Zm-108-3.1-2.41-2.52.47-.45,2.41,2.52Zm104.24-3.7c-.61-1-1.26-1.93-1.93-2.89l.53-.37c.68,1,1.34,2,1.95,2.91Zm-109.65-2-2.4-2.52.47-.45,2.4,2.53ZM342.92,131c-.69-.9-1.43-1.8-2.18-2.7l.5-.42c.76.9,1.5,1.82,2.2,2.72Zm-110.54-1.27-2.42-2.5.46-.46,2.43,2.51Zm105.5-4.7c-.77-.84-1.56-1.68-2.38-2.52L336,122q1.25,1.27,2.4,2.55Zm-111-.91-2.45-2.46.45-.46,2.47,2.46Zm-5.56-5.51c-.82-.8-1.66-1.6-2.51-2.41l.45-.47c.85.8,1.69,1.61,2.52,2.41Zm-5.68-5.38c-.85-.78-1.7-1.56-2.57-2.34l.43-.49,2.58,2.35ZM209.84,108c-.87-.76-1.75-1.51-2.64-2.26l.42-.5c.9.76,1.78,1.51,2.65,2.27Zm-6-5-2.72-2.18.41-.51c.92.73,1.82,1.46,2.72,2.19Zm-6.15-4.84c-.91-.7-1.84-1.39-2.78-2.09l.38-.52c.95.7,1.88,1.39,2.79,2.09Zm-6.31-4.63c-.93-.66-1.88-1.33-2.85-2l.37-.54c1,.67,1.92,1.33,2.86,2Zm-6.46-4.41c-.95-.64-1.93-1.27-2.91-1.9l.35-.54c1,.63,2,1.26,2.92,1.89Zm-6.6-4.2c-1-.6-2-1.2-3-1.79l.33-.56c1,.59,2,1.19,3,1.8Zm-6.74-4-3-1.69.31-.58,3.05,1.71Zm-6.86-3.76c-1-.54-2-1.07-3.08-1.61l.29-.58,3.1,1.61Zm-7-3.56c-1-.5-2.07-1-3.13-1.51l.28-.59c1.06.5,2.11,1,3.14,1.52ZM150.7,70.2l-3.17-1.44.27-.59c1.07.48,2.13,1,3.17,1.43ZM143.54,67l-3.21-1.35.25-.6,3.22,1.35Z" style="fill:#a6a6a6"></path><path d="M136.1,64l-1.62-.64.24-.61,1.62.64Z" style="fill:#a6a6a6"></path><polygon points="138.16 51.55 143.9 67.31 131.85 57.9 85.8 41.2 138.16 51.55" style="fill:#dbdbdb"></polygon><polygon points="130.31 61.57 143.9 67.31 131.85 57.9 130.31 61.57" style="fill:#c7c7c7"></polygon><polygon points="131.85 57.9 85.8 41.2 123.57 78.06 131.85 57.9" style="fill:#ebebeb"></polygon><polygon points="138.16 51.55 157.3 39.19 85.8 41.2 138.16 51.55" style="fill:#ebebeb"></polygon><path d="M160,379l-.21-.08-1.12-.44.23-.6,1.13.45,2,.78-.23.6Zm-5.27-2.13c-1.07-.44-2.11-.88-3.14-1.33l.26-.58,3.12,1.33Zm11.09,4.33.22-.6,3.2,1.14-.21.6Zm7.23,2.53.2-.6,3.23,1.07-.2.61Zm-25.34-9.92c-1.05-.48-2.08-1-3.08-1.45l.27-.57c1,.48,2,1,3.07,1.44Zm32.62,12.3.19-.61,3.24,1-.18.61Zm-39.52-15.65c-1-.52-2-1.05-3-1.58l.31-.57q1.46.8,3,1.59Zm46.84,17.89.18-.62,3.26,1-.18.61Zm-53.56-21.56c-1-.58-2-1.17-2.92-1.76l.34-.54c.94.59,1.91,1.17,2.9,1.75ZM195,390.42l.18-.61,3.27.9-.17.62Zm7.39,2,.16-.61.86.22,2.43.62-.15.62-2.44-.62Zm-74.79-29.75c-.95-.65-1.89-1.31-2.79-2l.37-.51c.9.65,1.83,1.31,2.77,1.95Zm82.24,31.55.14-.62c1.1.24,2.21.46,3.33.68l-.12.62C212.1,394.7,211,394.47,209.87,394.23Zm7.54,1.43.11-.63c1.11.19,2.23.37,3.35.53l-.09.63C219.65,396,218.53,395.85,217.41,395.66Zm-95.95-37.54c-.91-.74-1.79-1.48-2.61-2.21l.43-.47c.81.72,1.68,1.45,2.58,2.18ZM225,396.76l.07-.63c1.13.14,2.25.26,3.37.38l-.06.64C227.25,397,226.12,396.9,225,396.76ZM115.75,353c-.81-.82-1.6-1.65-2.34-2.49l.48-.42c.73.82,1.51,1.65,2.31,2.47Zm116.86,44.57,0-.64c1.13.1,2.25.19,3.38.26l0,.64C234.87,397.73,233.74,397.65,232.61,397.55Zm7.63.51,0-.64,3.39.15,0,.63ZM110.71,347.19c-.69-.92-1.35-1.86-2-2.8l.53-.35c.6.93,1.25,1.86,1.94,2.76Zm137.2,51.12v-.63l3.39,0v.64ZM106.58,340.7c-.53-1-1-2.05-1.47-3.09l.59-.25c.44,1,.93,2.05,1.45,3Zm149,57.63v-.64c1.14,0,2.27,0,3.4-.06v.64C257.85,398.29,256.71,398.32,255.57,398.33Zm7.66-.2,0-.64,3.4-.16,0,.64ZM103.62,333.6a19.72,19.72,0,0,1-.73-3.38l.64-.07a18.52,18.52,0,0,0,.7,3.26Zm167.26,64.12,0-.64,3.39-.24,0,.63Zm7.64-.61-.06-.63,3.39-.33.06.63Q280.25,397,278.52,397.11ZM103,325.89a11.93,11.93,0,0,1,.65-2.24,10.62,10.62,0,0,1,.46-1l.57.28c-.16.32-.31.66-.44,1a12.19,12.19,0,0,0-.62,2.14Zm183.11,70.43-.08-.63,3.38-.41.08.63Zm7.6-1-.09-.63c1.16-.16,2.28-.32,3.37-.49l.09.63C296,395,294.91,395.19,293.75,395.35ZM107.09,319.5l-.47-.43a20,20,0,0,1,2.56-2.32l.38.51A19.24,19.24,0,0,0,107.09,319.5Zm194.24,74.71-.1-.63,3.35-.57.11.63Zm7.56-1.33-.12-.63c1.2-.23,2.32-.44,3.34-.65l.13.63ZM113.09,315l-.3-.55a34.17,34.17,0,0,1,3.09-1.5l.25.59C115.06,314,114,314.48,113.09,315Zm203.32,76.36-.14-.63c2.16-.47,3.32-.76,3.33-.77l.15.62S318.58,390.87,316.41,391.35ZM120.08,312l-.2-.6c1-.35,2.14-.68,3.27-1l.17.62C122.2,311.36,121.11,311.69,120.08,312Zm7.36-2-.13-.62c1.09-.23,2.22-.44,3.36-.63l.1.63C129.64,309.63,128.52,309.84,127.44,310.07Zm7.53-1.23-.08-.63c1.13-.14,2.27-.26,3.4-.36l.05.64C137.22,308.58,136.09,308.7,135,308.84Zm7.6-.63,0-.64c1.15-.05,2.3-.08,3.42-.09v.64C144.86,308.13,143.72,308.16,142.57,308.21Z" style="fill:#a6a6a6"></path><polygon points="329.66 378.3 319.68 390.26 333.17 385.84 378.69 385.75 329.66 378.3" style="fill:#dbdbdb"></polygon><polygon points="333.36 389.53 319.68 390.26 333.17 385.84 333.36 389.53" style="fill:#c7c7c7"></polygon><polygon points="333.17 385.84 378.69 385.75 334.05 406.07 333.17 385.84" style="fill:#ebebeb"></polygon><polygon points="329.66 378.3 316.82 361.46 378.69 385.75 329.66 378.3" style="fill:#ebebeb"></polygon></g><g id="freepik--Floor--inject-186"><polygon points="42.29 409.55 94.21 409.31 146.14 409.22 250 409.05 353.86 409.22 405.79 409.3 457.71 409.55 405.79 409.79 353.86 409.88 250 410.05 146.14 409.88 94.21 409.79 42.29 409.55" style="fill:#263238"></polygon></g><g id="freepik--Newspaper--inject-186"><rect x="80.13" y="93.94" width="339.74" height="263.05" style="fill:#c7c7c7"></rect><polygon points="419.87 356.99 80.13 356.99 80.13 85.53 345.94 85.53 419.87 151.55 419.87 356.99" style="fill:#ebebeb"></polygon><path d="M177.37,132.56v27.1H171.3V121.17h4.77l22,27.76V121.22h6.13v38.44h-5Z" style="fill:#53B46F"></path><path d="M239.29,154.3v5.36h-26.4V121.17H238.8v5.37H219v11h17.19v5H219V154.3Z" style="fill:#53B46F"></path><path d="M259.24,121.33H265l4.72,13.07,4.77-13.07h5.69l-6.56,17.14,5.75,14.15,12-31.45H298l-15.89,38.49h-5.2l-7.16-17.24-7.21,17.24h-5.2l-15.89-38.49h6.61l12,31.45,5.75-14.15Z" style="fill:#53B46F"></path><path d="M324.42,130.22a8.84,8.84,0,0,0-1.58-1.27,15,15,0,0,0-2.41-1.27,16.93,16.93,0,0,0-3-1,15.23,15.23,0,0,0-3.38-.38q-3.86,0-5.67,1.41a4.67,4.67,0,0,0-1.82,3.9,4.25,4.25,0,0,0,.57,2.31,5,5,0,0,0,1.76,1.57,13.77,13.77,0,0,0,3,1.19q1.79.53,4.17,1.11a47.39,47.39,0,0,1,5.29,1.58,15.06,15.06,0,0,1,4,2.11,8.46,8.46,0,0,1,2.52,3.06,9.92,9.92,0,0,1,.9,4.42,10.73,10.73,0,0,1-1.11,5.05,9.52,9.52,0,0,1-3,3.44,13.14,13.14,0,0,1-4.47,1.95,22.83,22.83,0,0,1-5.48.62,27.44,27.44,0,0,1-8.48-1.32,24.33,24.33,0,0,1-7.4-3.88l2.76-5.21a13.22,13.22,0,0,0,2,1.58,20.2,20.2,0,0,0,3.09,1.6,27.75,27.75,0,0,0,3.83,1.24,17.24,17.24,0,0,0,4.28.52,10.27,10.27,0,0,0,5.53-1.25,4.1,4.1,0,0,0,1.95-3.69,4,4,0,0,0-.73-2.44,6.15,6.15,0,0,0-2.09-1.7,18.06,18.06,0,0,0-3.3-1.33c-1.31-.4-2.79-.82-4.45-1.25a44.78,44.78,0,0,1-5-1.6,12.77,12.77,0,0,1-3.55-2,8.09,8.09,0,0,1-2.14-2.79,9.27,9.27,0,0,1-.73-3.88,11.26,11.26,0,0,1,1.08-5,10.76,10.76,0,0,1,3-3.68,12.73,12.73,0,0,1,4.42-2.25,19.15,19.15,0,0,1,5.53-.76,20.33,20.33,0,0,1,7.21,1.24,24.17,24.17,0,0,1,5.8,3.1Z" style="fill:#53B46F"></path><polygon points="372.97 109.66 95.32 109.66 95.32 102.34 364.77 102.34 372.97 109.66" style="fill:#c7c7c7"></polygon><polygon points="362.61 100.42 95.32 100.42 95.32 98.96 360.99 98.96 362.61 100.42" style="fill:#c7c7c7"></polygon><polygon points="377.65 113.84 95.32 113.84 95.32 112.39 376.02 112.39 377.65 113.84" style="fill:#c7c7c7"></polygon><rect x="95.32" y="168.7" width="309.37" height="7.31" style="fill:#c7c7c7"></rect><rect x="95.32" y="165.33" width="309.37" height="1.45" style="fill:#c7c7c7"></rect><rect x="95.32" y="178.76" width="309.37" height="1.44" style="fill:#c7c7c7"></rect><rect x="95.31" y="121.17" width="54.46" height="38.5" style="fill:#c7c7c7"></rect><polygon points="404.68 137.98 404.68 159.66 350.23 159.66 350.23 121.18 385.87 121.18 404.68 137.98" style="fill:#c7c7c7"></polygon><rect x="185.97" y="205.42" width="128.06" height="98.4" transform="translate(500 509.23) rotate(180)" style="fill:#53B46F"></rect><path d="M199.73,228.48a11.41,11.41,0,1,0,9-9A11.43,11.43,0,0,0,199.73,228.48Z" style="opacity:0.2"></path><polygon points="221.48 283.04 314.03 283.04 267.75 231.15 221.48 283.04" style="opacity:0.2"></polygon><polygon points="185.97 283.09 262.38 283.09 224.17 249.29 185.97 283.09" style="fill:#53B46F"></polygon><polygon points="185.97 283.09 262.38 283.09 224.17 249.29 185.97 283.09" style="opacity:0.30000000000000004"></polygon><rect x="185.97" y="283.04" width="128.06" height="20.77" style="fill:#53B46F"></rect><rect x="185.97" y="283.04" width="128.06" height="20.77" style="opacity:0.30000000000000004"></rect><rect x="185.97" y="189.13" width="102.52" height="3.43" style="fill:#a6a6a6"></rect><rect x="185.97" y="196.57" width="73.34" height="3.43" style="fill:#a6a6a6"></rect><rect x="95.32" y="189.19" width="75.98" height="3.43" style="fill:#a6a6a6"></rect><rect x="95.26" y="205.4" width="75.98" height="3.43" style="fill:#dbdbdb"></rect><rect x="95.26" y="211.8" width="75.98" height="3.43" style="fill:#dbdbdb"></rect><rect x="95.26" y="218.2" width="75.98" height="3.43" style="fill:#dbdbdb"></rect><rect x="95.26" y="224.6" width="75.98" height="3.43" style="fill:#dbdbdb"></rect><rect x="95.26" y="231" width="75.98" height="3.43" style="fill:#dbdbdb"></rect><rect x="95.26" y="237.39" width="75.98" height="3.43" style="fill:#dbdbdb"></rect><rect x="95.26" y="243.79" width="75.98" height="3.43" style="fill:#dbdbdb"></rect><rect x="95.26" y="250.19" width="75.98" height="3.43" style="fill:#dbdbdb"></rect><rect x="95.26" y="256.59" width="44.5" height="3.43" style="fill:#dbdbdb"></rect><rect x="95.26" y="269.39" width="75.98" height="3.43" style="fill:#dbdbdb"></rect><rect x="95.26" y="275.79" width="75.98" height="3.43" style="fill:#dbdbdb"></rect><rect x="95.26" y="282.18" width="75.98" height="3.43" style="fill:#dbdbdb"></rect><rect x="95.26" y="288.58" width="75.98" height="3.43" style="fill:#dbdbdb"></rect><rect x="95.26" y="294.98" width="44.5" height="3.43" style="fill:#dbdbdb"></rect><rect x="95.32" y="196.63" width="54.36" height="3.43" style="fill:#a6a6a6"></rect><rect x="328.7" y="189.19" width="75.98" height="3.43" style="fill:#a6a6a6"></rect><rect x="328.64" y="205.4" width="75.98" height="3.43" style="fill:#dbdbdb"></rect><rect x="328.64" y="211.8" width="75.98" height="3.43" style="fill:#dbdbdb"></rect><rect x="328.64" y="218.2" width="75.98" height="3.43" style="fill:#dbdbdb"></rect><rect x="328.64" y="224.6" width="44.8" height="3.43" style="fill:#dbdbdb"></rect><rect x="328.64" y="237.39" width="75.98" height="3.43" style="fill:#dbdbdb"></rect><rect x="328.64" y="243.79" width="75.98" height="3.43" style="fill:#dbdbdb"></rect><rect x="328.64" y="250.19" width="75.98" height="3.43" style="fill:#dbdbdb"></rect><rect x="328.64" y="256.59" width="75.98" height="3.43" style="fill:#dbdbdb"></rect><rect x="328.64" y="262.99" width="44.8" height="3.43" style="fill:#dbdbdb"></rect><rect x="328.64" y="275.79" width="75.98" height="3.43" style="fill:#dbdbdb"></rect><rect x="328.64" y="282.18" width="75.98" height="3.43" style="fill:#dbdbdb"></rect><rect x="328.64" y="288.58" width="75.98" height="3.43" style="fill:#dbdbdb"></rect><rect x="328.64" y="294.98" width="75.98" height="3.43" style="fill:#dbdbdb"></rect><rect x="328.64" y="301.38" width="44.8" height="3.43" style="fill:#dbdbdb"></rect><rect x="328.7" y="196.63" width="54.36" height="3.43" style="fill:#a6a6a6"></rect><rect x="95.32" y="314.62" width="75.98" height="3.43" style="fill:#a6a6a6"></rect><rect x="95.26" y="330.84" width="75.98" height="3.43" style="fill:#dbdbdb"></rect><rect x="95.26" y="337.24" width="75.98" height="3.43" style="fill:#dbdbdb"></rect><rect x="95.26" y="343.63" width="75.98" height="3.43" style="fill:#dbdbdb"></rect><rect x="95.26" y="350.03" width="75.98" height="3.43" style="fill:#dbdbdb"></rect><rect x="95.32" y="322.07" width="54.36" height="3.43" style="fill:#a6a6a6"></rect><rect x="186.25" y="314.62" width="127.78" height="3.43" style="fill:#a6a6a6"></rect><rect x="186.15" y="330.84" width="127.78" height="3.43" style="fill:#dbdbdb"></rect><rect x="186.15" y="337.24" width="127.78" height="3.43" style="fill:#dbdbdb"></rect><rect x="186.15" y="343.63" width="127.78" height="3.43" style="fill:#dbdbdb"></rect><rect x="186.15" y="350.03" width="127.78" height="3.43" style="fill:#dbdbdb"></rect><rect x="186.25" y="322.07" width="91.41" height="3.43" style="fill:#a6a6a6"></rect><rect x="328.7" y="314.62" width="75.98" height="3.43" style="fill:#a6a6a6"></rect><rect x="328.64" y="330.84" width="75.98" height="3.43" style="fill:#dbdbdb"></rect><rect x="328.64" y="337.24" width="75.98" height="3.43" style="fill:#dbdbdb"></rect><rect x="328.64" y="343.63" width="75.98" height="3.43" style="fill:#dbdbdb"></rect><rect x="328.64" y="350.03" width="44.8" height="3.43" style="fill:#dbdbdb"></rect><rect x="328.7" y="322.07" width="54.36" height="3.43" style="fill:#a6a6a6"></rect><polygon points="345.94 85.53 347.83 151.91 419.87 151.55 345.94 85.53" style="fill:#dbdbdb"></polygon></g><g id="freepik--Shadow--inject-186"><ellipse cx="144.64" cy="457.2" rx="86.59" ry="12.27" style="fill:#ebebeb"></ellipse></g><g id="freepik--speech-bubbles--inject-186"><path d="M49.45,78.2A21.82,21.82,0,0,0,84.28,95.72L95,98.45l-4.45-10A21.82,21.82,0,1,0,49.45,78.2Z" style="fill:#53B46F"></path><path d="M49.45,78.2a21.87,21.87,0,0,0,3.31,11.41,23.14,23.14,0,0,0,1.74,2.45,23.57,23.57,0,0,0,2.09,2.15,20,20,0,0,0,4.94,3.36,20.71,20.71,0,0,0,8.63,2.19,19.77,19.77,0,0,0,3-.05,21.48,21.48,0,0,0,10.92-4.28l.14-.1.17,0L95.08,98l-.51.61-4.49-9.94-.1-.21.11-.21A21.68,21.68,0,0,0,92.6,79a21.43,21.43,0,0,0-1.78-9.45,22.47,22.47,0,0,0-5.73-7.75,21.5,21.5,0,0,0-8.58-4.48A21.8,21.8,0,0,0,66.8,57a22.14,22.14,0,0,0-8.89,4A21.9,21.9,0,0,0,49.45,78.2Zm0,0A22,22,0,0,1,57.82,61a22.09,22.09,0,0,1,27.75.28,22.46,22.46,0,0,1,6.06,8,22.13,22.13,0,0,1-.69,19.53l0-.42,4.41,10,.37.84-.88-.24-10.67-2.8.3-.06a22.05,22.05,0,0,1-11.31,4.17,18.15,18.15,0,0,1-3,0,21.91,21.91,0,0,1-13.65-5.86,22.58,22.58,0,0,1-2.08-2.18,22.32,22.32,0,0,1-1.73-2.47A22,22,0,0,1,49.45,78.2Z" style="fill:#263238"></path><path d="M62.78,79.11a1.92,1.92,0,1,1-1.92-1.92A1.92,1.92,0,0,1,62.78,79.11Z" style="fill:#263238"></path><path d="M72.85,79.11a1.92,1.92,0,1,1-1.91-1.92A1.91,1.91,0,0,1,72.85,79.11Z" style="fill:#263238"></path><path d="M82.93,79.11A1.92,1.92,0,1,1,81,77.19,1.92,1.92,0,0,1,82.93,79.11Z" style="fill:#263238"></path><path d="M162.21,170.45a13.5,13.5,0,0,0-2.32,7.48c0,9.49,10.42,17.18,23.26,17.18s23.25-7.69,23.25-17.18S196,160.76,183.15,160.76a27.9,27.9,0,0,0-16,4.75l-8-2Z" style="fill:#fffefd"></path><path d="M162.21,170.45a13.71,13.71,0,0,0-2.19,7.08,13.3,13.3,0,0,0,2,7.09,21,21,0,0,0,11.74,8.63,30.94,30.94,0,0,0,14.71.95,26,26,0,0,0,7.06-2.23,21.8,21.8,0,0,0,6-4.2,15,15,0,0,0,3.81-6.15,12.35,12.35,0,0,0,.1-7.15,15.17,15.17,0,0,0-3.72-6.21,21.78,21.78,0,0,0-6-4.28,26.63,26.63,0,0,0-7-2.29,30.66,30.66,0,0,0-7.41-.51,27.2,27.2,0,0,0-14,4.52l-.09.06-.1,0-8-2.14.14-.17Zm0,0L159,163.52l-.1-.22.24.06,8,1.93-.19,0a27.71,27.71,0,0,1,14.26-4.86,29.86,29.86,0,0,1,14.88,2.73,22.28,22.28,0,0,1,6.25,4.43,16,16,0,0,1,4,6.58,13.19,13.19,0,0,1-.07,7.72,16.21,16.21,0,0,1-4.08,6.53,22.79,22.79,0,0,1-6.31,4.35,27.51,27.51,0,0,1-7.3,2.27,31.8,31.8,0,0,1-7.61.37,31.18,31.18,0,0,1-7.47-1.52,24.41,24.41,0,0,1-6.77-3.48,18.31,18.31,0,0,1-5.13-5.6,13.72,13.72,0,0,1-1.82-7.32A13.56,13.56,0,0,1,162.21,170.45Z" style="fill:#263238"></path><path d="M191.51,177.93a2.41,2.41,0,1,1,2.41,2.42A2.41,2.41,0,0,1,191.51,177.93Z" style="fill:#263238"></path><path d="M180.73,177.93a2.42,2.42,0,1,1,2.42,2.42A2.41,2.41,0,0,1,180.73,177.93Z" style="fill:#263238"></path><path d="M170,177.93a2.41,2.41,0,1,1,2.41,2.42A2.41,2.41,0,0,1,170,177.93Z" style="fill:#263238"></path></g><g id="freepik--magnifying-glass--inject-186"><rect x="384.75" y="193.88" width="11.06" height="64.54" transform="translate(831.64 133.08) rotate(138)" style="fill:#c7c7c7"></rect><polygon points="427.61 280.12 440.04 268.93 440.04 268.93 409.88 235.43 409.88 235.43 397.45 246.62 397.45 246.62 427.61 280.12" style="fill:#263238"></polygon><path d="M327.34,216.52a50.39,50.39,0,1,1,59.2-39.69A50.44,50.44,0,0,1,327.34,216.52Zm1.12-5.66a44.62,44.62,0,1,0-35.14-52.41A44.67,44.67,0,0,0,328.46,210.86Z" style="fill:#37474f"></path><path d="M387.5,154.69a52.14,52.14,0,1,1-7.33-16.5A51.68,51.68,0,0,1,387.5,154.69Zm-97.9,24.06a48.91,48.91,0,1,0-.48-21.13A48.92,48.92,0,0,0,289.6,178.75Zm92.29-22.68a46.14,46.14,0,0,1-53.72,56.26h0a46.12,46.12,0,1,1,47.21-70.92A46.33,46.33,0,0,1,381.89,156.07Zm-53.14,53.31a43.17,43.17,0,1,0-27.45-18.3,43.17,43.17,0,0,0,27.45,18.3Z" style="fill:#37474f"></path><g style="opacity:0.2"><path d="M294.28,164.84a42.87,42.87,0,1,0,45.06-40.58A42.87,42.87,0,0,0,294.28,164.84Z" style="fill:#fff"></path><path d="M295.36,176.92a42.92,42.92,0,0,0,51.2,32Z" style="fill:#ebebeb"></path><path d="M308,135.55l70.14,43.81a43,43,0,0,0,1.73-10,41.79,41.79,0,0,0-1-11.62l-51.78-32.35A42.85,42.85,0,0,0,308,135.55Z" style="fill:#ebebeb"></path><path d="M294.72,160.58l66.81,41.73a43.27,43.27,0,0,0,6.41-5.45L296.8,152.42A41.54,41.54,0,0,0,294.72,160.58Z" style="fill:#ebebeb"></path><path d="M304,139.82l72.1,45c.22-.47.43-1,.63-1.43L305,138.64C304.68,139,304.33,139.41,304,139.82Z" style="fill:#ebebeb"></path><path d="M341.49,124.43l32,20c-.67-1.09-1.41-2.15-2.18-3.18l-26-16.26C344,124.74,342.77,124.55,341.49,124.43Z" style="fill:#ebebeb"></path></g><path d="M328.5,200.61a34.43,34.43,0,0,1-12.77-5.79,36.33,36.33,0,0,1-5.38-4.7A38.5,38.5,0,0,1,306,184.4a34.15,34.15,0,0,1-4.61-13.51,37.13,37.13,0,0,1,1.05-14,66.32,66.32,0,0,0,1.26,13.6,42.24,42.24,0,0,0,1.94,6.4,34.14,34.14,0,0,0,2.93,5.94,42.94,42.94,0,0,0,8.6,10.15A57.33,57.33,0,0,0,328.5,200.61Z" style="fill:#fff"></path></g></svg>